<svg xmlns="http://www.w3.org/2000/svg" xmlns:xlink="http://www.w3.org/1999/xlink" viewBox="0 0 411.54 232.36"><defs><style>.cls-1{fill:none;}.cls-2{isolation:isolate;}.cls-3{fill:url(#linear-gradient);}.cls-4{fill:url(#linear-gradient-2);}.cls-5{fill:url(#linear-gradient-3);}.cls-6{fill:url(#linear-gradient-4);}.cls-14,.cls-26,.cls-31,.cls-36,.cls-7,.cls-80,.cls-81,.cls-83,.cls-9{opacity:0.56;}.cls-14,.cls-26,.cls-31,.cls-36,.cls-7,.cls-92{mix-blend-mode:overlay;}.cls-7{fill:url(#linear-gradient-5);}.cls-8,.cls-81{fill:#f9fcff;}.cls-84,.cls-9{fill:#a5ffff;}.cls-10{fill:url(#linear-gradient-6);}.cls-11{fill:url(#linear-gradient-7);}.cls-12{fill:url(#linear-gradient-8);}.cls-13{fill:url(#linear-gradient-9);}.cls-14{fill:url(#linear-gradient-10);}.cls-15{fill:url(#linear-gradient-11);}.cls-16{fill:url(#linear-gradient-12);}.cls-17{fill:url(#linear-gradient-13);}.cls-18{fill:url(#linear-gradient-14);}.cls-19{fill:url(#linear-gradient-15);}.cls-20{fill:url(#linear-gradient-16);}.cls-21{fill:url(#linear-gradient-17);}.cls-22{fill:url(#linear-gradient-18);}.cls-23{fill:url(#linear-gradient-19);}.cls-24{fill:url(#linear-gradient-20);}.cls-25{fill:url(#linear-gradient-21);}.cls-26{fill:url(#linear-gradient-22);}.cls-27{fill:url(#linear-gradient-23);}.cls-28{fill:url(#linear-gradient-24);}.cls-29{fill:url(#linear-gradient-25);}.cls-30{fill:url(#linear-gradient-26);}.cls-31{fill:url(#linear-gradient-27);}.cls-32{fill:url(#linear-gradient-28);}.cls-33{fill:url(#linear-gradient-29);}.cls-34{fill:url(#linear-gradient-30);}.cls-35{fill:url(#linear-gradient-31);}.cls-36{fill:url(#linear-gradient-32);}.cls-37{fill:url(#linear-gradient-33);}.cls-38{fill:url(#linear-gradient-34);}.cls-39{fill:url(#linear-gradient-35);}.cls-40{fill:url(#linear-gradient-36);}.cls-41{fill:url(#linear-gradient-37);}.cls-42{fill:url(#linear-gradient-38);}.cls-43{fill:url(#linear-gradient-39);}.cls-44{fill:url(#linear-gradient-40);}.cls-45{fill:url(#linear-gradient-41);}.cls-46{fill:url(#linear-gradient-42);}.cls-47{fill:url(#linear-gradient-43);}.cls-48{fill:#1a6cbe;}.cls-49{fill:#aae0f1;}.cls-50{fill:url(#linear-gradient-44);}.cls-51{fill:#155698;}.cls-52{fill:#145494;}.cls-53{fill:#145290;}.cls-54{fill:#13508d;}.cls-55{fill:#134e89;}.cls-56{fill:#124c85;}.cls-57{fill:#124981;}.cls-58{fill:#11477d;}.cls-59{fill:#11457a;}.cls-60{fill:#104376;}.cls-61{fill:#dad5d8;}.cls-62{fill:url(#linear-gradient-45);}.cls-63{fill:#102465;}.cls-64{fill:#c1d0eb;}.cls-65{fill:#ffc15b;}.cls-66{fill:#dce6f6;}.cls-67{fill:#b5c7e8;}.cls-68{fill:#35abe2;}.cls-69{fill:#008dd7;}.cls-70{clip-path:url(#clip-path);}.cls-71{fill:#54bce9;}.cls-72{fill:url(#linear-gradient-46);}.cls-73{clip-path:url(#clip-path-2);}.cls-74{fill:url(#linear-gradient-47);}.cls-75{opacity:0.3;mix-blend-mode:multiply;}.cls-76{fill:#004299;}.cls-77{fill:#ffc6a0;}.cls-78{fill:#fff;}.cls-79{fill:#fdf7fb;}.cls-80{fill:#1773d0;}.cls-82{clip-path:url(#clip-path-3);}.cls-85{fill:#92dbfb;}.cls-86{fill:url(#linear-gradient-48);}.cls-87{fill:url(#linear-gradient-49);}.cls-88{fill:url(#linear-gradient-50);}.cls-89{fill:#a8bee3;}.cls-90{fill:#0e1f57;}.cls-91{fill:#017fd3;}.cls-92{opacity:0.5;}</style><linearGradient id="linear-gradient" x1="369.31" y1="64.93" x2="363.49" y2="79.1" gradientUnits="userSpaceOnUse"><stop offset="0" stop-color="#89daf4"/><stop offset="1" stop-color="#008dd7"/></linearGradient><linearGradient id="linear-gradient-2" x1="365.73" y1="153.06" x2="385.07" y2="153.06" gradientUnits="userSpaceOnUse"><stop offset="0" stop-color="#144188"/><stop offset="1" stop-color="#1a7cde"/></linearGradient><linearGradient id="linear-gradient-3" x1="346.3" y1="153.06" x2="365.73" y2="153.06" gradientUnits="userSpaceOnUse"><stop offset="0" stop-color="#144188"/><stop offset="1" stop-color="#102465"/></linearGradient><linearGradient id="linear-gradient-4" x1="367.34" y1="103.47" x2="360.81" y2="299.54" gradientUnits="userSpaceOnUse"><stop offset="0" stop-color="#009ae4" stop-opacity="0"/><stop offset="0.01" stop-color="#009ae4" stop-opacity="0.02"/><stop offset="0.1" stop-color="#0097e2" stop-opacity="0.28"/><stop offset="0.19" stop-color="#0095e1" stop-opacity="0.5"/><stop offset="0.28" stop-color="#0093df" stop-opacity="0.68"/><stop offset="0.37" stop-color="#0091de" stop-opacity="0.82"/><stop offset="0.46" stop-color="#0090de" stop-opacity="0.92"/><stop offset="0.54" stop-color="#008fdd" stop-opacity="0.98"/><stop offset="0.61" stop-color="#008fdd"/></linearGradient><linearGradient id="linear-gradient-5" x1="365.29" y1="18.77" x2="364.8" y2="71.36" gradientUnits="userSpaceOnUse"><stop offset="0" stop-color="#f9fcff" stop-opacity="0"/><stop offset="0.1" stop-color="#f9fcff" stop-opacity="0.07"/><stop offset="0.31" stop-color="#f9fcff" stop-opacity="0.25"/><stop offset="0.59" stop-color="#f9fcff" stop-opacity="0.54"/><stop offset="0.95" stop-color="#f9fcff" stop-opacity="0.94"/><stop offset="1" stop-color="#f9fcff"/></linearGradient><linearGradient id="linear-gradient-6" x1="400.43" y1="84.32" x2="397.15" y2="92.33" xlink:href="#linear-gradient"/><linearGradient id="linear-gradient-7" x1="398.41" y1="160.84" x2="409.34" y2="160.84" xlink:href="#linear-gradient-2"/><linearGradient id="linear-gradient-8" x1="387.43" y1="160.84" x2="398.41" y2="160.84" xlink:href="#linear-gradient-3"/><linearGradient id="linear-gradient-9" x1="397.55" y1="99.21" x2="399.86" y2="269.84" xlink:href="#linear-gradient-4"/><linearGradient id="linear-gradient-10" x1="397.69" y1="47.18" x2="397.31" y2="87.56" xlink:href="#linear-gradient-5"/><linearGradient id="linear-gradient-11" x1="390.79" y1="116.84" x2="388.08" y2="123.42" xlink:href="#linear-gradient"/><linearGradient id="linear-gradient-12" x1="389.12" y1="176.65" x2="398.1" y2="176.65" xlink:href="#linear-gradient-2"/><linearGradient id="linear-gradient-13" x1="380.1" y1="176.65" x2="389.12" y2="176.65" xlink:href="#linear-gradient-3"/><linearGradient id="linear-gradient-14" x1="389.79" y1="139.93" x2="386.66" y2="306.49" xlink:href="#linear-gradient-4"/><linearGradient id="linear-gradient-15" x1="23.01" y1="148.36" x2="17.19" y2="162.54" xlink:href="#linear-gradient"/><linearGradient id="linear-gradient-16" x1="19.43" y1="194.78" x2="38.77" y2="194.78" xlink:href="#linear-gradient-2"/><linearGradient id="linear-gradient-17" x1="0" y1="194.78" x2="19.43" y2="194.78" xlink:href="#linear-gradient-3"/><linearGradient id="linear-gradient-18" x1="86.49" y1="69.91" x2="83.96" y2="76.08" xlink:href="#linear-gradient"/><linearGradient id="linear-gradient-19" x1="84.93" y1="153.06" x2="93.34" y2="153.06" xlink:href="#linear-gradient-2"/><linearGradient id="linear-gradient-20" x1="76.48" y1="153.06" x2="84.93" y2="153.06" xlink:href="#linear-gradient-3"/><linearGradient id="linear-gradient-21" x1="86.11" y1="90.83" x2="85.03" y2="147.19" gradientUnits="userSpaceOnUse"><stop offset="0" stop-color="#0162c1" stop-opacity="0"/><stop offset="0.05" stop-color="#0162c1" stop-opacity="0.05"/><stop offset="0.14" stop-color="#0162c1" stop-opacity="0.18"/><stop offset="0.24" stop-color="#0162c1" stop-opacity="0.35"/><stop offset="0.42" stop-color="#0167c4" stop-opacity="0.49"/><stop offset="0.81" stop-color="#0275cc" stop-opacity="0.84"/><stop offset="0.98" stop-color="#027bd0"/></linearGradient><linearGradient id="linear-gradient-22" x1="84.54" y1="43.67" x2="84.27" y2="72.37" xlink:href="#linear-gradient-5"/><linearGradient id="linear-gradient-23" x1="59.27" y1="56.91" x2="54.79" y2="67.82" xlink:href="#linear-gradient"/><linearGradient id="linear-gradient-24" x1="56.52" y1="148.04" x2="71.4" y2="148.04" xlink:href="#linear-gradient-2"/><linearGradient id="linear-gradient-25" x1="41.56" y1="148.04" x2="56.52" y2="148.04" xlink:href="#linear-gradient-3"/><linearGradient id="linear-gradient-26" x1="57.33" y1="101.75" x2="54.86" y2="236.99" gradientUnits="userSpaceOnUse"><stop offset="0" stop-color="#0162c1" stop-opacity="0"/><stop offset="0.04" stop-color="#0162c1" stop-opacity="0.05"/><stop offset="0.1" stop-color="#0162c1" stop-opacity="0.18"/><stop offset="0.19" stop-color="#0061c1" stop-opacity="0.39"/><stop offset="0.29" stop-color="#0061c1" stop-opacity="0.69"/><stop offset="0.29" stop-color="#0061c1" stop-opacity="0.7"/><stop offset="0.7" stop-color="#015cbe" stop-opacity="0.87"/><stop offset="0.99" stop-color="#0158bb"/></linearGradient><linearGradient id="linear-gradient-27" x1="55.82" y1="13.92" x2="55.38" y2="61.39" xlink:href="#linear-gradient-5"/><linearGradient id="linear-gradient-28" x1="75.8" y1="96.87" x2="73.72" y2="101.94" xlink:href="#linear-gradient"/><linearGradient id="linear-gradient-29" x1="74.52" y1="166.19" x2="81.43" y2="166.19" xlink:href="#linear-gradient-2"/><linearGradient id="linear-gradient-30" x1="67.58" y1="166.19" x2="74.52" y2="166.19" xlink:href="#linear-gradient-3"/><linearGradient id="linear-gradient-31" x1="75.3" y1="118.1" x2="73.52" y2="226.13" gradientUnits="userSpaceOnUse"><stop offset="0" stop-color="#0162c1" stop-opacity="0"/><stop offset="0.03" stop-color="#0162c1" stop-opacity="0.05"/><stop offset="0.09" stop-color="#0162c1" stop-opacity="0.18"/><stop offset="0.15" stop-color="#0162c1" stop-opacity="0.35"/><stop offset="0.21" stop-color="#0162c1" stop-opacity="0.51"/><stop offset="0.33" stop-color="#0061c0" stop-opacity="0.9"/><stop offset="0.36" stop-color="#0061c0"/></linearGradient><linearGradient id="linear-gradient-32" x1="74.23" y1="74.25" x2="74" y2="98.86" xlink:href="#linear-gradient-5"/><linearGradient id="linear-gradient-33" x1="280.38" y1="140.77" x2="258.06" y2="185.65" xlink:href="#linear-gradient"/><linearGradient id="linear-gradient-34" x1="150.04" y1="208.81" x2="258.49" y2="208.81" xlink:href="#linear-gradient-3"/><linearGradient id="linear-gradient-35" x1="224.28" y1="79.68" x2="194.56" y2="152.05" xlink:href="#linear-gradient"/><linearGradient id="linear-gradient-36" x1="205.98" y1="178.56" x2="304.73" y2="178.56" xlink:href="#linear-gradient-2"/><linearGradient id="linear-gradient-37" x1="292.48" y1="174.54" x2="278.4" y2="208.81" xlink:href="#linear-gradient"/><linearGradient id="linear-gradient-38" x1="236.84" y1="214.13" x2="283.81" y2="214.13" xlink:href="#linear-gradient-3"/><linearGradient id="linear-gradient-39" x1="276.89" y1="171.94" x2="262.82" y2="206.22" xlink:href="#linear-gradient"/><linearGradient id="linear-gradient-40" x1="221.25" y1="212.83" x2="268.23" y2="212.83" xlink:href="#linear-gradient-3"/><linearGradient id="linear-gradient-41" x1="261.25" y1="169.34" x2="247.18" y2="203.62" xlink:href="#linear-gradient"/><linearGradient id="linear-gradient-42" x1="106.8" y1="178.56" x2="252.59" y2="178.56" xlink:href="#linear-gradient-3"/><linearGradient id="linear-gradient-43" x1="252.59" y1="208.81" x2="366.47" y2="208.81" xlink:href="#linear-gradient-2"/><linearGradient id="linear-gradient-44" x1="161.5" y1="178.62" x2="193.69" y2="178.62" gradientUnits="userSpaceOnUse"><stop offset="0.04" stop-color="#c8d6ee"/><stop offset="1" stop-color="#d6e0f2"/></linearGradient><linearGradient id="linear-gradient-45" x1="138.85" y1="186.72" x2="141.27" y2="186.72" gradientUnits="userSpaceOnUse"><stop offset="0" stop-color="#cdeffb"/><stop offset="1" stop-color="#89daf4"/></linearGradient><clipPath id="clip-path" transform="translate(-0.32 -77.13)"><path class="cls-1" d="M244.82,177.09l-27.07-15.73c1.51-2.63,2.37-4.1,3.88-6.72l27.07,15.73C247.19,173,246.34,174.47,244.82,177.09Z"/></clipPath><linearGradient id="linear-gradient-46" x1="243.6" y1="76.36" x2="230.09" y2="97.2" gradientUnits="userSpaceOnUse"><stop offset="0" stop-color="#89daf4"/><stop offset="1" stop-color="#76cff0"/></linearGradient><clipPath id="clip-path-2" transform="translate(-0.32 -77.13)"><path class="cls-1" d="M274.84,194.59l-27.07-15.73,3.88-6.72,27.07,15.73C277.21,190.5,276.36,192,274.84,194.59Z"/></clipPath><linearGradient id="linear-gradient-47" x1="272.72" y1="95.24" x2="259.21" y2="116.08" xlink:href="#linear-gradient-46"/><clipPath id="clip-path-3" transform="translate(-0.32 -77.13)"><polygon class="cls-1" points="268.54 138.8 268.59 121.78 293.88 136.37 293.83 153.4 268.54 138.8"/></clipPath><linearGradient id="linear-gradient-48" x1="123.46" y1="127.61" x2="105.62" y2="171.07" xlink:href="#linear-gradient"/><linearGradient id="linear-gradient-49" x1="107.13" y1="200.03" x2="166.42" y2="200.03" xlink:href="#linear-gradient-2"/><linearGradient id="linear-gradient-50" x1="47.58" y1="200.03" x2="107.13" y2="200.03" xlink:href="#linear-gradient-3"/></defs><g class="cls-2"><g id="Layer_1" data-name="Layer 1"><g class="cls-2"><polygon class="cls-3" points="385.07 73.76 365.73 84.98 346.31 73.76 365.73 62.53 385.07 73.76"/><polygon class="cls-4" points="385.07 232.36 385.07 73.76 365.73 84.98 365.73 232.36 385.07 232.36"/><polygon class="cls-5" points="365.73 232.36 365.73 84.98 346.31 73.76 346.31 232.36 365.73 232.36"/></g><rect class="cls-6" x="346.3" y="73.76" width="38.77" height="158.61"/><polygon class="cls-7" points="347.43 9.87 356.4 73.71 365.96 79.23 375.45 73.71 383.32 9.87 347.43 9.87"/><polygon class="cls-8" points="356.4 73.71 365.9 68.19 375.45 73.71 365.96 79.23 356.4 73.71"/><path class="cls-9" d="M374,118.1h-.71v-5.71a6.52,6.52,0,1,0-13,0v2.19h3.23v-2.19a3.29,3.29,0,1,1,6.58,0v5.71H359.56a1.07,1.07,0,0,0-1.07,1.08v12.3a1.07,1.07,0,0,0,1.07,1.08H374a1.07,1.07,0,0,0,1.07-1.08v-12.3A1.07,1.07,0,0,0,374,118.1Zm-6.15,7.54v1.74a1.08,1.08,0,1,1-2.15,0v-1.74a1.87,1.87,0,0,1-.82-1.55,1.89,1.89,0,1,1,3,1.55Z" transform="translate(-0.32 -77.13)"/><g class="cls-2"><polygon class="cls-10" points="409.34 89.31 398.41 95.66 387.43 89.31 398.41 82.97 409.34 89.31"/><polygon class="cls-11" points="409.34 232.36 409.34 89.31 398.41 95.66 398.41 232.36 409.34 232.36"/><polygon class="cls-12" points="398.41 232.36 398.41 95.66 387.43 89.31 387.43 232.36 398.41 232.36"/></g><rect class="cls-13" x="387.43" y="89.31" width="21.91" height="143.05"/><polygon class="cls-14" points="383.97 40.34 390.87 89.37 398.2 93.6 405.49 89.37 411.54 40.34 383.97 40.34"/><polygon class="cls-8" points="390.87 89.37 398.15 85.13 405.49 89.37 398.2 93.6 390.87 89.37"/><path class="cls-9" d="M398.7,135.89a6.37,6.37,0,1,0,6.37,6.37A6.37,6.37,0,0,0,398.7,135.89Zm1.48,8.72a2.09,2.09,0,0,1-1.22.63v.41a.4.4,0,0,1-.39.41.41.41,0,0,1-.41-.41v-.4a2.31,2.31,0,0,1-1.05-.4,1.84,1.84,0,0,1-.65-.75.47.47,0,0,1-.07-.25.4.4,0,0,1,0-.15.48.48,0,0,1,.22-.25.48.48,0,0,1,.21-.06.6.6,0,0,1,.44.28,1.43,1.43,0,0,0,1.28.66,1.31,1.31,0,0,0,.79-.23.77.77,0,0,0,.36-.65.67.67,0,0,0-.37-.6,2.61,2.61,0,0,0-.64-.22l-.13,0a3.38,3.38,0,0,1-1.45-.57,1.44,1.44,0,0,1-.59-1.19,1.59,1.59,0,0,1,.48-1.15,2,2,0,0,1,1.14-.58v-.36a.4.4,0,0,1,.12-.29.38.38,0,0,1,.29-.12.38.38,0,0,1,.28.12.39.39,0,0,1,.11.29v.36a1.93,1.93,0,0,1,1.41.86.41.41,0,0,1,.05.18s0,.05,0,.09a.53.53,0,0,1-.13.23.45.45,0,0,1-.31.11.43.43,0,0,1-.28-.09,2.2,2.2,0,0,0-.5-.35,1.54,1.54,0,0,0-.63-.11,1.28,1.28,0,0,0-.75.21.7.7,0,0,0-.32.59.62.62,0,0,0,.42.58,4,4,0,0,0,1,.28,3.34,3.34,0,0,1,1.23.55,1.43,1.43,0,0,1,.55,1.17A1.73,1.73,0,0,1,400.18,144.61Z" transform="translate(-0.32 -77.13)"/><g class="cls-2"><polygon class="cls-15" points="398.1 120.94 389.12 126.15 380.11 120.94 389.12 115.73 398.1 120.94"/><polygon class="cls-16" points="398.1 232.36 398.1 120.94 389.12 126.15 389.12 232.36 398.1 232.36"/><polygon class="cls-17" points="389.12 232.36 389.12 126.15 380.11 120.94 380.11 232.36 389.12 232.36"/></g><rect class="cls-18" x="380.1" y="120.94" width="18" height="111.42"/><g class="cls-2"><polygon class="cls-19" points="38.77 157.19 19.43 168.42 0 157.19 19.43 145.96 38.77 157.19"/><polygon class="cls-20" points="38.77 232.36 38.77 157.19 19.43 168.42 19.43 232.36 38.77 232.36"/><polygon class="cls-21" points="19.43 232.36 19.43 168.42 0 157.19 0 232.36 19.43 232.36"/></g><g class="cls-2"><polygon class="cls-22" points="93.34 73.75 84.93 78.64 76.48 73.75 84.93 68.87 93.34 73.75"/><polygon class="cls-23" points="93.34 232.36 93.34 73.75 84.93 78.64 84.93 232.36 93.34 232.36"/><polygon class="cls-24" points="84.93 232.36 84.93 78.64 76.48 73.75 76.48 232.36 84.93 232.36"/></g><rect class="cls-25" x="76.48" y="73.75" width="16.86" height="158.61"/><polygon class="cls-26" points="74.79 38.8 79.69 73.66 84.9 76.67 90.08 73.66 94.38 38.8 74.79 38.8"/><polygon class="cls-8" points="79.69 73.66 84.87 70.65 90.08 73.66 84.9 76.67 79.69 73.66"/><path class="cls-9" d="M90.11,128.66H80.39a.67.67,0,0,0-.68.68v5.38a.67.67,0,0,0,.68.68h9.72a.67.67,0,0,0,.68-.68v-5.38A.67.67,0,0,0,90.11,128.66ZM89,134.53a.93.93,0,0,1-.72-.35,1,1,0,0,1-.73.35.93.93,0,1,1,.73-1.5.91.91,0,0,1,.72-.36.93.93,0,1,1,0,1.86Zm.93-2.76H80.52v-1.66H90Z" transform="translate(-0.32 -77.13)"/><g class="cls-2"><polygon class="cls-27" points="71.4 63.71 56.52 72.35 41.56 63.71 56.52 55.07 71.4 63.71"/><polygon class="cls-28" points="71.4 232.36 71.4 63.71 56.52 72.35 56.52 232.36 71.4 232.36"/><polygon class="cls-29" points="56.52 232.36 56.52 72.35 41.56 63.71 41.56 232.36 56.52 232.36"/></g><rect class="cls-30" x="41.56" y="63.71" width="29.84" height="168.65"/><polygon class="cls-31" points="39.7 5.88 47.8 63.51 56.42 68.49 64.99 63.51 72.1 5.88 39.7 5.88"/><polygon class="cls-8" points="47.8 63.51 56.37 58.53 64.99 63.51 56.42 68.49 47.8 63.51"/><path class="cls-9" d="M62.21,121.6l-1.7-1.71a1.38,1.38,0,0,0-1.33-.35l-.86-.86a4.06,4.06,0,0,0,.77-2.4,4.11,4.11,0,0,0-1.21-2.93A4.15,4.15,0,0,0,52,119.21a4.14,4.14,0,0,0,5.34.45l.85.85a1.38,1.38,0,0,0,.35,1.33l1.71,1.71a1.38,1.38,0,0,0,2-2ZM53,118.24a2.76,2.76,0,0,1,0-3.91,2.77,2.77,0,0,1,4.72,2,2.76,2.76,0,0,1-4.72,2Z" transform="translate(-0.32 -77.13)"/><g class="cls-2"><polygon class="cls-32" points="81.43 100.03 74.52 104.04 67.58 100.03 74.52 96.02 81.43 100.03"/><polygon class="cls-33" points="81.43 232.36 81.43 100.03 74.52 104.04 74.52 232.36 81.43 232.36"/><polygon class="cls-34" points="74.52 232.36 74.52 104.04 67.58 100.03 67.58 232.36 74.52 232.36"/></g><rect class="cls-35" x="67.58" y="100.03" width="13.85" height="132.34"/><polygon class="cls-36" points="65.87 70.08 70.07 99.97 74.54 102.55 78.98 99.97 82.67 70.08 65.87 70.08"/><polygon class="cls-8" points="70.07 99.97 74.51 97.38 78.98 99.97 74.54 102.55 70.07 99.97"/><path class="cls-8" d="M77.46,169.28v-1.59c0-.3,0-.45.15-.47s.29.2.43.26a.54.54,0,0,0,.48,0,.61.61,0,0,0,.24-.57.6.6,0,0,0-.24-.56.54.54,0,0,0-.48,0c-.14.06-.27.27-.43.26s-.15-.17-.15-.47v-1.59H75.87c-.31,0-.45,0-.47-.16s.2-.29.26-.42a.54.54,0,0,0,0-.48.61.61,0,0,0-.57-.24.6.6,0,0,0-.56.24.54.54,0,0,0,0,.48c.06.13.27.26.26.42s-.17.16-.47.16H72.73v1.59c0,.3,0,.45.15.47s.29-.2.43-.26a.54.54,0,0,1,.48,0,.6.6,0,0,1,.24.56.61.61,0,0,1-.24.57.54.54,0,0,1-.48,0c-.14-.06-.26-.28-.43-.26s-.15.16-.15.46v1.6Z" transform="translate(-0.32 -77.13)"/><polyline class="cls-9" points="337.2 122.19 322.61 113.77 322.58 122.39 337.17 130.81 337.2 122.19"/><polygon class="cls-9" points="322.51 103.56 322.5 111.4 331.55 116.63 331.56 113.42 331.56 108.79 322.51 103.56"/><polyline class="cls-9" points="336.5 115.83 333.71 114.22 333.7 117.42 336.49 119.03 336.5 115.83"/><polygon class="cls-9" points="321.16 109.32 307.6 101.5 307.57 110.85 321.16 118.69 321.16 109.32"/><polygon class="cls-9" points="310.21 119.94 310.2 124.23 310.2 124.23 310.2 125.01 317.17 129.04 317.18 127.25 317.19 123.97 310.21 119.94"/><g class="cls-2"><polygon class="cls-37" points="285.34 232.36 366.48 185.26 258.49 122.58 150.04 185.26 231.53 232.36 285.34 232.36"/><polygon class="cls-38" points="231.53 232.36 150.04 185.26 150.04 232.36 231.53 232.36"/></g><g class="cls-2"><polygon class="cls-39" points="304.73 124.76 205.98 182.08 106.8 124.76 205.98 67.44 304.73 124.76"/><polygon class="cls-40" points="304.73 232.36 304.73 124.76 205.98 182.08 205.98 232.36 304.73 232.36"/></g><g class="cls-2"><polygon class="cls-41" points="330.58 195.89 283.81 223.04 236.84 195.89 283.81 168.74 330.58 195.89"/><polygon class="cls-42" points="283.81 232.36 283.81 223.04 236.84 195.89 236.84 232.36 283.81 232.36"/></g><g class="cls-2"><polygon class="cls-43" points="315 193.29 268.23 220.44 221.25 193.29 268.23 166.14 315 193.29"/><polygon class="cls-44" points="268.23 232.36 268.23 220.44 221.25 193.29 221.25 232.36 268.23 232.36"/></g><g class="cls-2"><polygon class="cls-45" points="299.36 190.69 252.59 217.84 205.61 190.69 252.59 163.54 299.36 190.69"/><polygon class="cls-46" points="252.59 232.36 252.59 217.84 205.98 190.91 205.98 182.08 106.8 124.76 106.8 232.36 252.59 232.36"/></g><polygon class="cls-47" points="366.48 232.36 366.48 185.26 330.58 206.1 330.58 195.89 315 204.93 315 193.29 299.36 202.37 299.36 190.69 252.59 217.84 252.59 232.36 366.48 232.36"/><path class="cls-9" d="M143.83,100.47l-29.77,17.19a3.11,3.11,0,0,0-1.42,2.45l.13,45.65c0,.91.64,1.27,1.42.82L144,149.38a3.1,3.1,0,0,0,1.42-2.45l-.13-45.65c0-.9-.64-1.27-1.43-.81" transform="translate(-0.32 -77.13)"/><g class="cls-2"><path class="cls-9" d="M117.89,119.93a3.21,3.21,0,0,0-1.44,2.51c0,.91.66,1.29,1.45.83a3.2,3.2,0,0,0,1.45-2.51c0-.92-.65-1.3-1.46-.83" transform="translate(-0.32 -77.13)"/><path class="cls-9" d="M140.68,107.53,123,117.75a1.76,1.76,0,0,0-.8,1.38c0,.5.36.7.8.45l17.7-10.22a1.74,1.74,0,0,0,.79-1.37c0-.51-.36-.71-.79-.46" transform="translate(-0.32 -77.13)"/><path class="cls-9" d="M140.69,111.64,123,121.86a1.77,1.77,0,0,0-.8,1.38c0,.51.36.71.8.46l17.7-10.22a1.76,1.76,0,0,0,.8-1.38c0-.5-.36-.71-.8-.46" transform="translate(-0.32 -77.13)"/><path class="cls-9" d="M126.55,123.93,123,126a1.77,1.77,0,0,0-.8,1.38c0,.5.36.71.81.45l3.55-2a1.72,1.72,0,0,0,.79-1.37c0-.51-.36-.72-.8-.46" transform="translate(-0.32 -77.13)"/><path class="cls-9" d="M129.57,122.19l-.33.19a1.73,1.73,0,0,0-.8,1.38c0,.5.36.71.8.45l.33-.19a1.74,1.74,0,0,0,.79-1.37c0-.51-.36-.71-.79-.46" transform="translate(-0.32 -77.13)"/><path class="cls-9" d="M117.94,134.5a3.19,3.19,0,0,0-1.45,2.5c0,.93.66,1.3,1.46.83a3.18,3.18,0,0,0,1.44-2.5c0-.92-.65-1.29-1.45-.83" transform="translate(-0.32 -77.13)"/><path class="cls-9" d="M140.72,122.1,123,132.32a1.76,1.76,0,0,0-.8,1.38c0,.5.36.71.8.45l17.7-10.22a1.72,1.72,0,0,0,.79-1.37c0-.51-.36-.71-.79-.46" transform="translate(-0.32 -77.13)"/><path class="cls-9" d="M140.73,126.22,123,136.43a1.79,1.79,0,0,0-.8,1.38c0,.51.36.71.8.46l17.7-10.22a1.75,1.75,0,0,0,.8-1.37c0-.51-.36-.72-.8-.46" transform="translate(-0.32 -77.13)"/><path class="cls-9" d="M126.59,138.5,123,140.55a1.72,1.72,0,0,0-.79,1.38c0,.51.36.71.8.45l3.55-2a1.76,1.76,0,0,0,.8-1.38c0-.5-.36-.71-.81-.45" transform="translate(-0.32 -77.13)"/><path class="cls-9" d="M129.61,136.76l-.33.19a1.76,1.76,0,0,0-.8,1.38c0,.5.36.71.8.45l.33-.19a1.72,1.72,0,0,0,.79-1.37c0-.51-.36-.71-.79-.46" transform="translate(-0.32 -77.13)"/><path class="cls-9" d="M118,149.07a3.21,3.21,0,0,0-1.45,2.51c0,.92.66,1.29,1.46.83a3.21,3.21,0,0,0,1.44-2.51c0-.92-.65-1.29-1.45-.83" transform="translate(-0.32 -77.13)"/><path class="cls-9" d="M140.76,136.67l-17.7,10.22a1.76,1.76,0,0,0-.8,1.38c0,.5.36.71.8.45l17.7-10.22a1.75,1.75,0,0,0,.8-1.37c0-.51-.36-.71-.8-.46" transform="translate(-0.32 -77.13)"/><path class="cls-9" d="M140.77,140.79,123.07,151a1.79,1.79,0,0,0-.8,1.38c0,.51.36.71.81.46l17.7-10.22a1.77,1.77,0,0,0,.79-1.38c0-.5-.36-.71-.8-.45" transform="translate(-0.32 -77.13)"/><path class="cls-9" d="M126.63,153.07l-3.55,2.05a1.73,1.73,0,0,0-.79,1.38c0,.51.36.71.8.45l3.55-2a1.75,1.75,0,0,0,.8-1.37c0-.51-.36-.71-.81-.46" transform="translate(-0.32 -77.13)"/><path class="cls-9" d="M129.65,151.33l-.33.19a1.73,1.73,0,0,0-.79,1.38c0,.51.35.71.79.45l.33-.19a1.74,1.74,0,0,0,.8-1.37c0-.51-.36-.71-.8-.46" transform="translate(-0.32 -77.13)"/></g><g class="cls-2"><polygon class="cls-48" points="177.25 120.25 193.37 110.88 193.37 112.74 177.25 122.11 177.25 120.25"/><path class="cls-48" d="M165.52,167.67l1.51,1.56L161.84,181a6.7,6.7,0,0,0,.45,5.19,9.66,9.66,0,0,0,3.8,4.52l11.48,6.63v1.86l-11.48-6.63a13.31,13.31,0,0,1-5.14-6.11c-1.15-2.63-1.38-5.26-.6-7Z" transform="translate(-0.32 -77.13)"/><polygon class="cls-49" points="165.21 90.54 181.33 81.17 182.83 82.73 166.71 92.1 165.21 90.54"/><path class="cls-50" d="M182.21,181.38a5.72,5.72,0,0,1-.56-.35l0,0c-.18-.13-.35-.26-.52-.41l0,0q-.26-.23-.51-.48h0c-.17-.17-.33-.35-.49-.54l0,0c-.15-.18-.29-.36-.43-.56a.36.36,0,0,1-.07-.1c-.1-.13-.19-.27-.28-.41l-.18-.28-.32-.56,0,0c-.12-.23-.23-.47-.33-.7s-.2-.49-.29-.72v0q-.12-.35-.21-.69v0c-.06-.23-.11-.45-.15-.67v0c0-.22-.07-.44-.09-.65v0c0-.21,0-.42,0-.62v0a5.28,5.28,0,0,1,0-.58v0a4.51,4.51,0,0,1,.1-.53v0a3.82,3.82,0,0,1,.18-.51l5.19-11.81L167,169.23,161.84,181c0,.06-.05.13-.08.19a2,2,0,0,0-.08.26s0,0,0,.06v0l0,.13c0,.08,0,.16-.05.23a1,1,0,0,0,0,.17v0a1.64,1.64,0,0,0,0,.22c0,.07,0,.14,0,.21V183c0,.07,0,.14,0,.21s0,.09,0,.14v.08c0,.07,0,.14,0,.21l0,.23,0,.15v.08c0,.08,0,.16,0,.23l.06.24a.83.83,0,0,0,0,.15v.1a2.17,2.17,0,0,1,.07.24c0,.08,0,.17.08.25s0,.09.05.14v0l0,.07c0,.07.05.15.08.23a2.29,2.29,0,0,0,.1.23,1.54,1.54,0,0,0,.08.19v0l.11.23.12.25.09.18,0,0,0,.05c.07.13.14.26.22.39l.07.12.18.28.13.21.15.21.07.1,0,.07a2.35,2.35,0,0,0,.19.25l.17.21,0,0,0,0,.13.15.18.19.18.2h0l.19.19.2.18.12.11,0,0,.05,0,.2.17.21.15.06.05,0,0,.11.08.2.13a2.12,2.12,0,0,0,.2.12l.05,0,11.48,6.63L193.69,188Z" transform="translate(-0.32 -77.13)"/></g><g class="cls-2"><g class="cls-2"><path class="cls-51" d="M218.44,78.44l-1.61-.94a3.26,3.26,0,0,1,.38-.18l1.61.93c-.12,0-.25.12-.38.19" transform="translate(-0.32 -77.13)"/><path class="cls-52" d="M218.82,78.25l-1.61-.93a1.35,1.35,0,0,1,.32-.11l1.61.93-.32.11" transform="translate(-0.32 -77.13)"/><path class="cls-53" d="M219.14,78.14l-1.61-.93a1.06,1.06,0,0,1,.23,0l1.62.93-.24,0" transform="translate(-0.32 -77.13)"/><path class="cls-54" d="M219.38,78.09l-1.62-.93a.75.75,0,0,1,.21,0l1.61.93-.2,0" transform="translate(-0.32 -77.13)"/><path class="cls-55" d="M219.58,78.07,218,77.14a.48.48,0,0,1,.17,0l1.62.93h-.18" transform="translate(-0.32 -77.13)"/><path class="cls-56" d="M219.76,78.07l-1.62-.93.17,0,1.61.93-.16,0" transform="translate(-0.32 -77.13)"/><path class="cls-57" d="M219.92,78.09l-1.61-.93a.8.8,0,0,1,.15,0l1.61.94-.15,0" transform="translate(-0.32 -77.13)"/><path class="cls-58" d="M220.07,78.13l-1.61-.94.14,0,1.61.94-.14-.05" transform="translate(-0.32 -77.13)"/><path class="cls-59" d="M220.21,78.18l-1.61-.94.14.07,1.61.93-.14-.06" transform="translate(-0.32 -77.13)"/><path class="cls-60" d="M220.35,78.24l-1.61-.93h0l1.61.93h0" transform="translate(-0.32 -77.13)"/></g><path class="cls-8" d="M140.46,182.91l80.85-46.68,0,6.83a5.92,5.92,0,0,1-2.69,4.67l-75.45,43.56c-1.49.86-2.7.17-2.71-1.55Z" transform="translate(-0.32 -77.13)"/><polygon class="cls-61" points="140.15 105.77 138.53 104.84 219.38 58.16 221 59.09 140.15 105.77"/><path class="cls-62" d="M140.48,189.74l0-6.83-1.61-.94,0,6.84a2.77,2.77,0,0,0,.12.85,1.52,1.52,0,0,0,.67.88l1.61.94A1.88,1.88,0,0,1,140.48,189.74Z" transform="translate(-0.32 -77.13)"/><path class="cls-48" d="M218.44,78.44c1.5-.86,2.71-.17,2.71,1.55l.16,56.24-80.85,46.68-.16-56.24A5.93,5.93,0,0,1,143,122Z" transform="translate(-0.32 -77.13)"/><path class="cls-63" d="M218.75,77.32a1.89,1.89,0,0,0-1.92.18l-75.44,43.56a3,3,0,0,0-.43.29l-.07.05c-.13.1-.25.21-.38.33l0,0-.06.06-.18.19s0,0-.05.07,0,0-.05,0l-.1.13-.07.08-.06.08a.86.86,0,0,0-.07.1.18.18,0,0,0-.05.07.83.83,0,0,0-.08.12l-.06.08,0,0-.14.23v0l0,0-.1.17a314698590945.18,314698590945.18,0,0,0-.08.16l0,.07-.09.19,0,0h0l-.1.24v0a.36.36,0,0,0,0,.09l0,.12,0,.1,0,.11a.14.14,0,0,0,0,.07.53.53,0,0,0,0,.12.74.74,0,0,0,0,.14.43.43,0,0,0,0,0s0,.06,0,.1l0,.21a133310987664.38,133310987664.38,0,0,0,0,.12,3.71,3.71,0,0,0,0,.47l.16,56.24,1.61.94-.16-56.24a3.87,3.87,0,0,1,0-.48s0-.07,0-.11l0-.22,0-.15,0-.13a1.46,1.46,0,0,1,.05-.2l0-.11.08-.21,0-.09a1.88,1.88,0,0,1,.12-.3v0c0-.09.08-.18.13-.27l0-.08c0-.08.08-.16.13-.24l0,0c.06-.09.12-.18.17-.27l.06-.08.13-.2.08-.1.12-.15a1.47,1.47,0,0,1,.1-.13l.11-.12.18-.19.09-.09a3.9,3.9,0,0,1,.38-.33l.07-.06A3.07,3.07,0,0,1,143,122l75.44-43.56a1.92,1.92,0,0,1,1.92-.19Z" transform="translate(-0.32 -77.13)"/><path class="cls-64" d="M180.76,162.44c1.05-.6,1.9-.12,1.9,1.08a4.14,4.14,0,0,1-1.89,3.27c-1,.61-1.89.12-1.9-1.08A4.19,4.19,0,0,1,180.76,162.44Z" transform="translate(-0.32 -77.13)"/><polygon class="cls-63" points="217.33 5.82 217.47 55.84 143.65 98.46 143.5 48.44 217.33 5.82"/></g><g class="cls-2"><path class="cls-8" d="M194.37,137l.27-1.94-1.14-.61,1.57-1.17.69-2,.7,1.23,1.56-.64-1.12,1.92.27,1.63-1.4,0-1.4,1.65m5.88-3.39.26-1.94-1.13-.61,1.56-1.17.69-2,.7,1.23,1.57-.64-1.13,1.91L203,132l-1.4,0-1.39,1.65m5.87-3.39.26-1.94-1.13-.61,1.56-1.17.69-2,.71,1.23,1.56-.64L208.64,127l.27,1.64-1.4,0-1.39,1.65m5.87-3.39.26-1.94-1.13-.61,1.56-1.17.7-2,.7,1.23,1.56-.64-1.13,1.91.28,1.64-1.4,0-1.4,1.65m5.87-3.39.27-1.94-1.14-.61,1.57-1.17.69-2,.7,1.23,1.56-.64-1.12,1.91.27,1.64-1.4,0-1.4,1.65M223.18,112,191.8,130.13a3,3,0,0,0-1.37,2.38l0,9.11c0,.87.62,1.22,1.38.78l31.38-18.12a3,3,0,0,0,1.37-2.37l0-9.11c0-.87-.63-1.23-1.39-.79" transform="translate(-0.32 -77.13)"/><polyline class="cls-65" points="195.44 54.14 194.75 56.17 193.19 57.33 194.32 57.95 194.06 59.89 195.45 58.24 196.85 58.28 196.58 56.64 197.71 54.73 196.15 55.37 195.44 54.14"/><polyline class="cls-65" points="201.31 50.75 200.62 52.78 199.06 53.94 200.19 54.55 199.93 56.5 201.33 54.85 202.73 54.88 202.46 53.25 203.58 51.34 202.02 51.98 201.31 50.75"/><polyline class="cls-65" points="207.19 47.36 206.49 49.39 204.93 50.55 206.07 51.16 205.81 53.11 207.2 51.46 208.6 51.49 208.33 49.86 209.45 47.95 207.89 48.58 207.19 47.36"/><polyline class="cls-65" points="213.06 43.97 212.37 46 210.81 47.16 211.94 47.77 211.68 49.72 213.07 48.07 214.47 48.1 214.2 46.47 215.33 44.55 213.76 45.19 213.06 43.97"/><polyline class="cls-66" points="218.93 40.58 218.24 42.61 216.68 43.77 217.81 44.38 217.55 46.33 218.94 44.68 220.34 44.71 220.07 43.08 221.2 41.16 219.63 41.8 218.93 40.58"/></g><path class="cls-8" d="M179.43,113.06,152.18,128.8A2.82,2.82,0,0,0,150.9,131l.09,32.28c0,.81.58,1.14,1.29.73l27.25-15.73a2.85,2.85,0,0,0,1.29-2.22l-.09-32.28c0-.81-.59-1.14-1.3-.73" transform="translate(-0.32 -77.13)"/><path class="cls-67" d="M155.24,158.18c-.27.16-.49,0-.5-.28a1.08,1.08,0,0,1,.5-.85l2.19-1.27c.28-.16.5,0,.5.28a1.1,1.1,0,0,1-.49.86l-2.2,1.26" transform="translate(-0.32 -77.13)"/><path class="cls-67" d="M159.1,156c-.28.15-.5,0-.5-.29a1.08,1.08,0,0,1,.5-.85l.19-.11c.28-.16.5,0,.5.28a1.1,1.1,0,0,1-.49.85l-.2.12" transform="translate(-0.32 -77.13)"/><path class="cls-67" d="M155.23,155.64c-.27.16-.49,0-.49-.28a1.1,1.1,0,0,1,.49-.86l6.08-3.51c.27-.15.49,0,.49.29a1.07,1.07,0,0,1-.49.85l-6.08,3.51" transform="translate(-0.32 -77.13)"/><path class="cls-67" d="M163.06,151.12c-.28.16-.5,0-.5-.28a1.07,1.07,0,0,1,.5-.85l4.46-2.58c.27-.16.49,0,.49.28a1,1,0,0,1-.49.85l-4.46,2.58" transform="translate(-0.32 -77.13)"/><path class="cls-67" d="M169.27,147.53c-.27.16-.49,0-.5-.28a1.08,1.08,0,0,1,.5-.85l7.28-4.2c.27-.16.49,0,.49.28a1.1,1.1,0,0,1-.49.85l-7.28,4.2" transform="translate(-0.32 -77.13)"/><path class="cls-67" d="M155.23,153.09c-.28.16-.5,0-.5-.28a1.08,1.08,0,0,1,.49-.85L170.66,143c.28-.16.5,0,.5.28a1.08,1.08,0,0,1-.5.86l-15.43,8.91" transform="translate(-0.32 -77.13)"/><path class="cls-67" d="M155.21,148c-.27.16-.49,0-.49-.28a1,1,0,0,1,.49-.85l2.19-1.27c.28-.16.5,0,.5.28a1.1,1.1,0,0,1-.49.85l-2.2,1.27" transform="translate(-0.32 -77.13)"/><path class="cls-67" d="M159.07,145.77c-.27.16-.49,0-.5-.28a1.07,1.07,0,0,1,.5-.85l.2-.12c.27-.16.49,0,.49.28a1.1,1.1,0,0,1-.49.86l-.2.11" transform="translate(-0.32 -77.13)"/><path class="cls-67" d="M155.2,145.45c-.27.16-.49,0-.49-.28a1.1,1.1,0,0,1,.49-.85L176.52,132c.27-.16.49,0,.49.28a1.1,1.1,0,0,1-.49.86l-21.32,12.3" transform="translate(-0.32 -77.13)"/><path class="cls-67" d="M155.2,142.91c-.28.15-.5,0-.5-.29a1.1,1.1,0,0,1,.49-.85l7.13-4.12c.28-.15.5,0,.5.29a1.1,1.1,0,0,1-.49.85l-7.13,4.12" transform="translate(-0.32 -77.13)"/><path class="cls-67" d="M164.28,137.66c-.27.16-.49,0-.49-.28a1.12,1.12,0,0,1,.49-.86l12.23-7.06c.27-.15.49,0,.49.29a1,1,0,0,1-.49.85l-12.23,7.06" transform="translate(-0.32 -77.13)"/><path class="cls-67" d="M155.18,137.81c-.27.16-.49,0-.49-.28a1.07,1.07,0,0,1,.49-.85l2.2-1.27c.27-.16.49,0,.49.28a1.1,1.1,0,0,1-.49.86l-2.2,1.26" transform="translate(-0.32 -77.13)"/><path class="cls-67" d="M159,135.59c-.27.15-.49,0-.49-.29a1.07,1.07,0,0,1,.49-.85l.2-.11c.27-.16.49,0,.49.28a1.1,1.1,0,0,1-.49.85l-.2.12" transform="translate(-0.32 -77.13)"/><path class="cls-67" d="M155.17,135.27c-.27.16-.49,0-.49-.28a1.1,1.1,0,0,1,.49-.86l12.14-7c.27-.16.49,0,.49.28a1,1,0,0,1-.49.85l-12.14,7" transform="translate(-0.32 -77.13)"/><path class="cls-67" d="M169.13,127.21c-.27.15-.49,0-.49-.28a1.1,1.1,0,0,1,.49-.86l7.36-4.24c.27-.16.49,0,.49.28a1.1,1.1,0,0,1-.49.85l-7.36,4.25" transform="translate(-0.32 -77.13)"/><path class="cls-67" d="M155.17,132.72c-.28.16-.5,0-.5-.28a1.07,1.07,0,0,1,.49-.85l21.32-12.31c.27-.16.49,0,.5.28a1.07,1.07,0,0,1-.5.85l-21.31,12.31" transform="translate(-0.32 -77.13)"/><g class="cls-2"><polygon class="cls-68" points="244.54 110.63 217.47 94.89 217.44 84.22 244.51 99.96 244.54 110.63"/><path class="cls-69" d="M258,165l0,15.14-13.18,7.61,0-10.67c1.52-2.62,2.37-4.1,3.88-6.72Z" transform="translate(-0.32 -77.13)"/><g class="cls-2"><g class="cls-70"><path class="cls-71" d="M244.82,177.09l-27.07-15.73c1.51-2.63,2.37-4.1,3.88-6.72l27.07,15.73c-1.51,2.62-2.36,4.1-3.88,6.72" transform="translate(-0.32 -77.13)"/></g></g><polygon class="cls-72" points="248.39 93.24 221.32 77.5 230.6 72.14 257.68 87.87 248.39 93.24"/></g><g class="cls-2"><polyline class="cls-9" points="232.31 76.22 230.76 75.32 229.22 76.22 230.77 77.11 232.31 76.22"/><polyline class="cls-9" points="234.87 77.69 233.32 76.8 231.78 77.7 233.33 78.59 234.87 77.69"/><polyline class="cls-9" points="237.43 79.17 235.88 78.28 234.34 79.17 235.89 80.07 237.43 79.17"/><polyline class="cls-9" points="239.99 80.65 238.44 79.75 236.9 80.65 238.45 81.55 239.99 80.65"/><polyline class="cls-9" points="242.55 82.13 241 81.23 239.46 82.13 241 83.02 242.55 82.13"/><polyline class="cls-9" points="245.11 83.61 243.56 82.71 242.01 83.61 243.57 84.5 245.11 83.61"/><polyline class="cls-9" points="237.38 82.17 228.15 76.84 226.68 77.69 235.91 83.02 237.38 82.17"/><path class="cls-9" d="M239.52,160.31a1.7,1.7,0,0,0-1.55,0,.47.47,0,0,0,0,.89,1.7,1.7,0,0,0,1.55,0c.43-.24.42-.64,0-.89" transform="translate(-0.32 -77.13)"/><path class="cls-9" d="M242.07,161.78a1.74,1.74,0,0,0-1.54,0,.48.48,0,0,0,0,.9,1.7,1.7,0,0,0,1.55,0c.43-.25.42-.65,0-.9" transform="translate(-0.32 -77.13)"/></g><path class="cls-69" d="M220.62,169.06c-.5-.29-.9-.06-.91.51v.48a2,2,0,0,0,.9,1.56l20.68,11.94c.5.29.91.06.91-.52v-.47a2,2,0,0,0-.9-1.57l-20.68-11.93" transform="translate(-0.32 -77.13)"/><g class="cls-2"><polygon class="cls-68" points="274.56 128.13 247.49 112.4 247.46 101.72 274.53 117.46 274.56 128.13"/><path class="cls-69" d="M288,182.51l0,15.14-13.18,7.61,0-10.67c1.52-2.62,2.37-4.09,3.88-6.72Z" transform="translate(-0.32 -77.13)"/><g class="cls-2"><g class="cls-73"><path class="cls-71" d="M274.84,194.59l-27.07-15.73,3.88-6.72,27.07,15.73c-1.51,2.63-2.36,4.1-3.88,6.72" transform="translate(-0.32 -77.13)"/></g></g><polygon class="cls-74" points="278.41 110.74 251.34 95 260.62 89.64 287.69 105.38 278.41 110.74"/></g><g class="cls-2"><polyline class="cls-9" points="262.33 93.72 260.78 92.82 259.24 93.72 260.79 94.62 262.33 93.72"/><polyline class="cls-9" points="264.89 95.2 263.34 94.3 261.8 95.2 263.35 96.09 264.89 95.2"/><polyline class="cls-9" points="267.45 96.67 265.9 95.78 264.36 96.67 265.91 97.57 267.45 96.67"/><polyline class="cls-9" points="270.01 98.15 268.46 97.26 266.92 98.15 268.47 99.05 270.01 98.15"/><polyline class="cls-9" points="272.57 99.63 271.02 98.73 269.48 99.63 271.02 100.52 272.57 99.63"/><polyline class="cls-9" points="275.13 101.11 273.58 100.21 272.03 101.11 273.59 102 275.13 101.11"/><polyline class="cls-9" points="267.4 99.67 258.17 94.34 256.7 95.19 265.93 100.52 267.4 99.67"/><path class="cls-9" d="M269.54,177.81a1.7,1.7,0,0,0-1.55,0,.48.48,0,0,0,0,.9,1.73,1.73,0,0,0,1.55,0c.43-.24.42-.64,0-.89" transform="translate(-0.32 -77.13)"/><path class="cls-9" d="M272.09,179.29a1.67,1.67,0,0,0-1.54,0,.47.47,0,0,0,0,.89,1.7,1.7,0,0,0,1.55,0c.43-.24.42-.65,0-.89" transform="translate(-0.32 -77.13)"/></g><path class="cls-69" d="M250.64,186.56c-.5-.29-.9-.06-.91.52v.47a2,2,0,0,0,.9,1.56l20.68,11.94c.5.29.91.06.91-.52v-.47a2,2,0,0,0-.9-1.57l-20.68-11.93" transform="translate(-0.32 -77.13)"/><g class="cls-75"><path class="cls-76" d="M221.5,184.54c-3.3,1.9-3.31,5,0,6.89a13.15,13.15,0,0,0,11.92,0c3.3-1.91,3.33-5,0-6.91A13.11,13.11,0,0,0,221.5,184.54Z" transform="translate(-0.32 -77.13)"/></g><path class="cls-63" d="M230.49,190.21s3-1.94,3.07-2.41-.64-1-1.15-1-2.61.19-2.61.19l-.68.77S227.91,190.69,230.49,190.21Z" transform="translate(-0.32 -77.13)"/><path class="cls-63" d="M224,187.77s3-1.94,3.07-2.41-.64-1-1.15-1-2.61.2-2.61.2l-.68.77S221.38,188.25,224,187.77Z" transform="translate(-0.32 -77.13)"/><path class="cls-63" d="M231.47,163.08l.09,24.55a3,3,0,0,1-2.93-.06s-2.23-21.21-2.28-21.72-.94,19.37-.94,19.37a2.59,2.59,0,0,1-3-.35l-1-23.5Z" transform="translate(-0.32 -77.13)"/><path class="cls-63" d="M221.32,154.89l.35-.17c.14-2.23.64-10.79.64-10.79-.83.3-1.43.63-1.93,2.87a41.06,41.06,0,0,0-.65,4.49,3.93,3.93,0,0,0,1.57,3.58Z" transform="translate(-0.32 -77.13)"/><polygon class="cls-8" points="230.15 70.93 235.88 72.89 233.02 80.28 227.38 78.28 230.15 70.93"/><path class="cls-63" d="M229,144.73a7.69,7.69,0,0,1,2.88,1.6l-.44,16.75s-2.11,1.54-6.43.41c-3.52-.92-4.45-2.4-4.45-2.4s-.32-8,0-11.43a15.21,15.21,0,0,1,1.71-5.73,10.13,10.13,0,0,1,2.46-.13Z" transform="translate(-0.32 -77.13)"/><path class="cls-77" d="M225.13,143.7l-.1-3.27a.76.76,0,0,1-.68-1c.14-.9,1-.31,1.13-.05,0,0,.19-3.1,1.84-3.4s2.33-.06,2.37.74.09,3.6,0,4.64,0,1.58-1.5,1.54l-.13,1.09s-.68.64-2.79.12Z" transform="translate(-0.32 -77.13)"/><path class="cls-78" d="M229,144.73c0-.64-.12-1-1.6-1.16s-2.7-.57-2.85,0,.15.92,1.64,1.05S229,144.73,229,144.73Z" transform="translate(-0.32 -77.13)"/><path class="cls-63" d="M231.91,146.33c.64.26,1,8.31,1,8.31l1.94-1.77,1.5.95s-2.13,6.87-4.41,5.26S228.71,145.06,231.91,146.33Z" transform="translate(-0.32 -77.13)"/><path class="cls-77" d="M235,151.82c.17-.62-.22-1.37.15-1.48s.7.45.7.45.16-1.56.47-1.57.55.65.55.65a1.25,1.25,0,0,1,.59.48,2.79,2.79,0,0,1-1.12,3.47l-1.5-.95A4.72,4.72,0,0,1,235,151.82Z" transform="translate(-0.32 -77.13)"/><path class="cls-8" d="M227.92,139.14a.55.55,0,0,0-.55-.24.5.5,0,0,0-.29.66c0,.11.63.77.67.69a7.32,7.32,0,0,1-1.57,2.06,1.26,1.26,0,0,1-.46.3.48.48,0,0,1-.51-.11,5.92,5.92,0,0,1-1.49-5.15,1.85,1.85,0,0,1,.41-.91.87.87,0,0,1,.91-.27c.55-1.51,3.94-1,4.58.18.77,1.44-.77,1.83-1.06,2.93a3.66,3.66,0,0,0-.11.88A2.94,2.94,0,0,0,227.92,139.14Z" transform="translate(-0.32 -77.13)"/><path class="cls-63" d="M325.44,203a5.1,5.1,0,0,0-6.17,5.13,4,4,0,0,1-.14,1.94c-.45.89-1.75,1.15-2.09,2.09s.56,1.93.78,3a5.8,5.8,0,0,1-.64,3.12c-.36,1-.52,2.29.25,3.05s2.09.63,2.88,1.35c.36.33.57.8.93,1.12a2.2,2.2,0,0,0,2.82-.27,5.87,5.87,0,0,0,1.43-2.71,7.76,7.76,0,0,1,1.25-2.81c.56-.67,1.39-1.17,1.67-2,.41-1.19-.46-2.4-.71-3.63a9.75,9.75,0,0,1,.46-4,6.71,6.71,0,0,0-.2-3.74A3.37,3.37,0,0,0,325.44,203Z" transform="translate(-0.32 -77.13)"/><g class="cls-75"><path class="cls-76" d="M328.93,253.83c3.22,1.85,3.24,4.86,0,6.71a12.75,12.75,0,0,1-11.61,0c-3.21-1.86-3.24-4.87,0-6.73A12.75,12.75,0,0,1,328.93,253.83Z" transform="translate(-0.32 -77.13)"/></g><path class="cls-77" d="M330.55,229a12.12,12.12,0,0,1,.67,2.05c.06.57-.41.44-.41.44a3.74,3.74,0,0,0-.69.67c-.29.39-1.25-.2-1.25-.2l.07-2.6Z" transform="translate(-0.32 -77.13)"/><path class="cls-77" d="M326.72,212.65c1.44.35,1.6,1,2,2.42s1,7.86,1,7.86l.82,6.08-1.61.36-1.82-5.79Z" transform="translate(-0.32 -77.13)"/><path class="cls-63" d="M319.4,254.75a1.91,1.91,0,0,0-.2,2.47c.72,1.09,1.73,2.19,3.07,1.9.68-.14-.42-2.58-1.43-4S319.4,254.75,319.4,254.75Z" transform="translate(-0.32 -77.13)"/><path class="cls-77" d="M318.77,240.79s.32,12.82.4,14.36c.05,1.14,1.59,2.5,2.25,2.36.88-.18-.58-2.36-.58-2.36s1-10,1.27-11.76.32-3,.32-3Z" transform="translate(-0.32 -77.13)"/><path class="cls-63" d="M324.64,253a1.91,1.91,0,0,0-.2,2.47c.72,1.1,1.73,2.2,3.07,1.91.68-.15-.42-2.59-1.43-4S324.64,253,324.64,253Z" transform="translate(-0.32 -77.13)"/><path class="cls-77" d="M324.33,239.07s0,12.82.08,14.37c0,1.13,1.59,2.49,2.25,2.36.88-.19-.58-2.36-.58-2.36s1.75-11.84,2-13.61-.05-1.2-.05-1.2Z" transform="translate(-0.32 -77.13)"/><path class="cls-63" d="M320.11,224.48A14.45,14.45,0,0,0,318,234.87c.49,3.62.79,5.92.79,5.92a10.77,10.77,0,0,0,9.28-1,73.82,73.82,0,0,0,1.14-9.5,9.64,9.64,0,0,0-1.48-5.86Z" transform="translate(-0.32 -77.13)"/><path class="cls-63" d="M321.1,212.69a9.24,9.24,0,0,0-2.34.83,25.5,25.5,0,0,0,.62,6.9,12.54,12.54,0,0,1,.73,4.06s1.74,2.82,7.6,0c0,0,.53-3.29.89-4.87s.93-1.67.1-3.52a20.87,20.87,0,0,0-2-3.43,6.13,6.13,0,0,0-1.7-.22Z" transform="translate(-0.32 -77.13)"/><path class="cls-77" d="M321.8,211.93l-.08-3.4a.73.73,0,0,1-.65-.94c.14-.88,1-.29,1.1,0,0,0,.21-3,1.81-3.31s3.16.08,3.19.86a16,16,0,0,1-.45,4.57c-.33,1-.48,1.37-1.94,1.32l.09,1.85s-.74.53-2.79,0Z" transform="translate(-0.32 -77.13)"/><path class="cls-78" d="M324.8,211.55a1,1,0,0,1,.39.06,1.94,1.94,0,0,1,.7,1.3,4.58,4.58,0,0,1-.26,1.38l-1.32-1.21-.85,1.61a3.47,3.47,0,0,1-1.23-.65,4.55,4.55,0,0,1-1.13-1.35c.23-.58.39-.93.39-.93s.31-.19.31-.19a5.59,5.59,0,0,0,2.51,1.37S324.71,212.75,324.8,211.55Z" transform="translate(-0.32 -77.13)"/><path class="cls-77" d="M318.76,213.52c-1,.7-2.79,9.65-2.79,10.93s2.51,7.05,2.51,7.05l1.67-.89L318.77,224s1.23-5.2,1.59-6.94S318.76,213.52,318.76,213.52Z" transform="translate(-0.32 -77.13)"/><path class="cls-77" d="M320.15,230.61s1,1.32,1.1,1.59-.58,0-.58,0,.63,1.75.43,1.94-1.05-.19-1.05-.19a1.8,1.8,0,0,1-.78-.46,17.82,17.82,0,0,1-.79-2Z" transform="translate(-0.32 -77.13)"/><path class="cls-63" d="M321.6,211.12a1.65,1.65,0,0,0,1.06-1.21c.08-.45,0-1,.28-1.32.4-.51,1.28-.33,1.73-.79s.22-1.39.7-1.87a1.61,1.61,0,0,1,1.16-.31,6.45,6.45,0,0,0,.24,2.47c.07.23.23.51.47.5s.37-.37.39-.64c.05-.53.09-1,.14-1.57a2.62,2.62,0,0,0-.38-2,2.28,2.28,0,0,0-1.45-.59,5.93,5.93,0,0,0-4.09.85,3.66,3.66,0,0,0-1.57,3.71,7.55,7.55,0,0,1,.35,1.32,1.22,1.22,0,0,1-.15.65c-.09.16-.38.32-.34.52C320.24,211.28,321.3,211.22,321.6,211.12Z" transform="translate(-0.32 -77.13)"/><path class="cls-8" d="M147.46,170.05a6.47,6.47,0,0,0-.67,2.27,16.18,16.18,0,0,0-.15,5.05,5.46,5.46,0,0,0,2.78,4,7.85,7.85,0,0,0,3.8.41A4.86,4.86,0,0,0,156,181c2.09-1.69,1.11-5.71.3-7.84A8.54,8.54,0,0,0,154,169.6a5.11,5.11,0,0,0-4-1.25A3.26,3.26,0,0,0,147.46,170.05Z" transform="translate(-0.32 -77.13)"/><g class="cls-75"><path class="cls-76" d="M146.08,219.09c-3.21,1.86-3.23,4.86,0,6.72a12.79,12.79,0,0,0,11.6,0c3.22-1.86,3.25-4.87,0-6.73A12.81,12.81,0,0,0,146.08,219.09Z" transform="translate(-0.32 -77.13)"/></g><path class="cls-77" d="M144.46,194.28a12.47,12.47,0,0,0-.66,2c-.06.58.41.44.41.44a3.61,3.61,0,0,1,.69.68c.29.39,1.25-.2,1.25-.2l-.07-2.6Z" transform="translate(-0.32 -77.13)"/><path class="cls-77" d="M148.84,177.92c-1.43.35-1.6,1-2,2.42s-1.54,7.85-1.54,7.85l-.83,6.09,1.62.36,1.81-5.8Z" transform="translate(-0.32 -77.13)"/><path class="cls-63" d="M148,185l.27-7.12c-1.44.35-1.61,1-2,2.42a20.66,20.66,0,0,0-1.06,3.92C145.7,184.49,147.74,185,148,185Z" transform="translate(-0.32 -77.13)"/><path class="cls-63" d="M155.62,220a1.91,1.91,0,0,1,.2,2.47c-.72,1.09-1.73,2.19-3.08,1.9-.68-.14.42-2.58,1.43-4S155.62,220,155.62,220Z" transform="translate(-0.32 -77.13)"/><path class="cls-77" d="M156.25,206.06s-.32,12.82-.4,14.36c-.06,1.14-1.59,2.5-2.25,2.36-.89-.18.57-2.36.57-2.36s-1-10-1.26-11.76-.33-3-.33-3Z" transform="translate(-0.32 -77.13)"/><path class="cls-63" d="M150.38,218.3a1.91,1.91,0,0,1,.2,2.47c-.72,1.1-1.73,2.19-3.08,1.9-.68-.14.42-2.58,1.43-4S150.38,218.3,150.38,218.3Z" transform="translate(-0.32 -77.13)"/><path class="cls-77" d="M150.68,204.34s0,12.82-.07,14.36c-.06,1.14-1.59,2.5-2.25,2.36-.89-.18.57-2.36.57-2.36s-1.74-11.83-2-13.61.05-1.19.05-1.19Z" transform="translate(-0.32 -77.13)"/><path class="cls-63" d="M154.91,189.75A14.45,14.45,0,0,1,157,200.14c-.49,3.62-.79,5.92-.79,5.92a10.79,10.79,0,0,1-9.28-1,74.75,74.75,0,0,1-1.15-9.5,9.72,9.72,0,0,1,1.49-5.86Z" transform="translate(-0.32 -77.13)"/><path class="cls-63" d="M153.92,178a9.24,9.24,0,0,1,2.34.83,25.41,25.41,0,0,1-.62,6.89,12.62,12.62,0,0,0-.73,4.07s-1.74,2.82-7.6,0c0,0-.54-3.28-.89-4.87s-.93-1.66-.11-3.51a20.51,20.51,0,0,1,2-3.43,6.07,6.07,0,0,1,1.69-.22Z" transform="translate(-0.32 -77.13)"/><path class="cls-77" d="M151.81,173.29a4.38,4.38,0,0,1-1.59-2,9.38,9.38,0,0,1-2.27,1.85,9.08,9.08,0,0,0,.35,1.81c.32,1,.48,1.38,1.94,1.33l-.09,1.85s.74.53,2.78,0l.29-.93.07-3.4a.74.74,0,0,0,.66-.9A1.7,1.7,0,0,1,151.81,173.29Z" transform="translate(-0.32 -77.13)"/><path class="cls-78" d="M150.22,176.81a1.17,1.17,0,0,0-.39.06,2,2,0,0,0-.7,1.3,4.6,4.6,0,0,0,.26,1.39l1.32-1.21.84,1.61a3.55,3.55,0,0,0,1.24-.65,4.69,4.69,0,0,0,1.13-1.35c-.23-.58-.39-.93-.39-.93s-.31-.19-.31-.19a5.51,5.51,0,0,1-2.51,1.36S150.31,178,150.22,176.81Z" transform="translate(-0.32 -77.13)"/><path class="cls-77" d="M155,184c.5,2.21,1.22,5.24,1.22,5.24l-1.38,6.62,1.66.88s2.52-5.76,2.52-7a49.08,49.08,0,0,0-1.24-6.52C156.9,183.5,156,183.77,155,184Z" transform="translate(-0.32 -77.13)"/><path class="cls-63" d="M155,186.29c.93-.25,3-.48,3.9-.7-.62-2.93-2.07-6.37-2.65-6.8,0,0-2,1.8-1.6,3.53C154.83,183.16,154.66,184.81,155,186.29Z" transform="translate(-0.32 -77.13)"/><path class="cls-77" d="M154.87,195.88s-1,1.32-1.11,1.59.59,0,.59,0-.63,1.75-.43,1.94,1.05-.19,1.05-.19a1.8,1.8,0,0,0,.78-.46,17.47,17.47,0,0,0,.78-2Z" transform="translate(-0.32 -77.13)"/><g class="cls-75"><path class="cls-76" d="M344.51,261c3.21,1.86,3.23,4.86,0,6.72a12.81,12.81,0,0,1-11.61,0c-3.22-1.86-3.25-4.87,0-6.73A12.81,12.81,0,0,1,344.51,261Z" transform="translate(-0.32 -77.13)"/></g><path class="cls-63" d="M336.14,266.7s-3-1.93-3.05-2.4.64-1,1.14-1,2.6.2,2.6.2l.68.76S338.71,267.18,336.14,266.7Z" transform="translate(-0.32 -77.13)"/><path class="cls-63" d="M342.65,264.27s-3-1.93-3.06-2.4.64-1,1.14-1,2.61.19,2.61.19l.67.77S345.22,264.75,342.65,264.27Z" transform="translate(-0.32 -77.13)"/><path class="cls-63" d="M335.17,239.68l-.09,24.46a3,3,0,0,0,2.92-.07s2.77-21.13,2.82-21.63.39,19.29.39,19.29a2.55,2.55,0,0,0,3-.35l1.54-23.4Z" transform="translate(-0.32 -77.13)"/><path class="cls-79" d="M337.6,221.4a7.62,7.62,0,0,0-2.87,1.6l.44,16.68s2.1,1.54,6.41.41c3.5-.92,4.42-2.39,4.42-2.39s.32-8,0-11.39a16.34,16.34,0,0,0-.78-3.56,3.37,3.37,0,0,0-3.36-2.28h0Z" transform="translate(-0.32 -77.13)"/><path class="cls-77" d="M341.49,220.38l.09-3.26a.76.76,0,0,0,.68-1c-.14-.9-1-.31-1.13,0,0,0-.19-3.1-1.82-3.39s-2.32-.06-2.36.74-.1,3.58,0,4.62,0,1.57,1.49,1.53l.13,1.09s.68.63,2.78.12Z" transform="translate(-0.32 -77.13)"/><path class="cls-79" d="M337.6,221.4c0-.64.12-1,1.6-1.15s2.68-.57,2.83,0-.15.91-1.63,1S337.6,221.4,337.6,221.4Z" transform="translate(-0.32 -77.13)"/><path class="cls-77" d="M334.73,223c-.64.25-1.86,9.64-1.86,9.64l-3.78-2.45-.88,1.54s4.23,5.57,6.5,4S337.92,221.73,334.73,223Z" transform="translate(-0.32 -77.13)"/><path class="cls-79" d="M336.68,229.59c.35-3.61-.13-7.31-1.95-6.59-.33.13-1.33,2.85-1.72,5.3C334,228.84,335.6,229.16,336.68,229.59Z" transform="translate(-0.32 -77.13)"/><path class="cls-77" d="M328.45,229.35c-.44-.47-.45-1.31-.83-1.23s-.4.72-.4.72-.87-1.29-1.14-1.16-.19.83-.19.83a1.27,1.27,0,0,0-.29.69,3.22,3.22,0,0,0,.83,1.74,3.14,3.14,0,0,0,1.78.79l.88-1.54A5,5,0,0,0,328.45,229.35Z" transform="translate(-0.32 -77.13)"/><path class="cls-63" d="M338.7,215.83a.59.59,0,0,1,.56-.23.49.49,0,0,1,.28.65c0,.11-.63.77-.67.69a7.32,7.32,0,0,0,1.57,2.05,1.08,1.08,0,0,0,.46.3.48.48,0,0,0,.51-.11c1.27-1.45,2.16-3.86,1.06-5.67a2.86,2.86,0,0,0-1.76-1.3c-.65-.17-1.35-.1-2-.32a5.3,5.3,0,0,0-1.23-.43c-.44,0-.94.38-.78.79a.82.82,0,0,0-1.21.34,1.28,1.28,0,0,0,.27,1.35c.7.81,2,.87,2.29,2a4.32,4.32,0,0,1,.11.88A3.18,3.18,0,0,1,338.7,215.83Z" transform="translate(-0.32 -77.13)"/><path class="cls-9" d="M262.44,113.63,235.32,98c-.71-.41-1.3-.08-1.3.74l-.12,41.58a2.85,2.85,0,0,0,1.29,2.23l27.12,15.66c.72.41,1.3.08,1.3-.74l.12-41.57a2.85,2.85,0,0,0-1.29-2.24" transform="translate(-0.32 -77.13)"/><path class="cls-9" d="M240.13,107.66v3.5l-3.22-1.86v-3.5l3.22,1.86m4.14,2.39L241,108.19v3.5l3.23,1.86v-3.5m8.19,32-3.22-1.86v3.49l3.22,1.87v-3.5m4.14,2.39-3.23-1.86v3.49l3.23,1.86v-3.49m4.13,2.39L257.51,145v3.49l3.22,1.86v-3.49M248.42,109l-11.5-6.64v1.12l11.49,6.63V109m12.4,7.16-5.22-3v1.11l5.23,3v-1.12" transform="translate(-0.32 -77.13)"/><path class="cls-80" d="M252.54,114.83v3.49l-3.23-1.86V113l3.23,1.86m-12.42-2.62-3.22-1.86v3.49l3.22,1.86v-3.49m8.26,9.32-3.23-1.87v3.5l3.23,1.86v-3.49m0,4.54-3.23-1.87v3.5l3.23,1.86v-3.49m-4.13-6.93L241,117.27v3.5l3.22,1.86v-3.49m0,4.54L241,121.82v3.49l3.23,1.87v-3.5m0,4.54L241,126.36v3.49l3.23,1.87v-3.5m4.14,2.39-3.23-1.86v3.49l3.23,1.87v-3.5m4.13,2.39-3.23-1.87v3.5l3.23,1.86V133m0-4.55-3.23-1.86v3.5l3.23,1.86v-3.5m0-4.54-3.22-1.86v3.49l3.22,1.87v-3.5m0-4.54-3.23-1.86V121l3.23,1.87v-3.5M248.4,117l-3.23-1.87v3.5l3.23,1.86V117m-4.14-2.39L241,112.73v3.5l3.23,1.86V114.6m-4.15,2.15-3.23-1.86v3.49l3.23,1.86v-3.49m0,4.54-3.22-1.86v3.5l3.22,1.86v-3.5m0,4.54L236.86,124v3.5l3.22,1.86v-3.5m0,4.54-3.22-1.86V132l3.22,1.86v-3.5m4.14,2.39L241,130.9v3.5l3.23,1.86v-3.5m4.13,2.39-3.22-1.86v3.49l3.22,1.87v-3.5m4.14,2.39-3.23-1.87v3.5l3.23,1.86v-3.49m-4.07-25.1-3.23-1.86v3.5l3.23,1.86v-3.5m-8.36,22.47-3.22-1.86v3.49L240,138.4v-3.49m4.14,2.39L241,135.43v3.5l3.23,1.86V137.3m4.14,2.39-3.23-1.87v3.5l3.23,1.86v-3.49m8.34-22.48-3.22-1.86v3.5l3.22,1.86v-3.5m-.05,18.17-3.22-1.86V137l3.22,1.86v-3.5m0-4.54L253.41,129v3.5l3.22,1.86v-3.5m0-4.54-3.23-1.86v3.49l3.23,1.86V126.3m0-4.54-3.22-1.86v3.49l3.22,1.86v-3.49m-.05,18.16-3.22-1.86v3.5l3.22,1.86v-3.5m4.2-20.32-3.22-1.86v3.5l3.22,1.86v-3.5m-.05,18.17-3.22-1.86v3.5l3.22,1.86v-3.5m0-4.54-3.22-1.86v3.49l3.22,1.87v-3.5m0-4.54-3.22-1.86v3.49l3.22,1.86v-3.49m0-4.54-3.22-1.86v3.49l3.22,1.86v-3.49m-.05,18.16-3.23-1.86V144l3.23,1.86v-3.5M255,149.49l-12.41-7.16v.95l12.4,7.16v-.95" transform="translate(-0.32 -77.13)"/><g class="cls-2"><path class="cls-9" d="M278.48,101.19,257.12,88.86c-1.12-.65-2-.13-2,1.15l0,13.1a4.39,4.39,0,0,0,2,3.49l21.36,12.33c1.12.65,2,.13,2-1.15v-3.46l0-9.65A4.43,4.43,0,0,0,278.48,101.19Z" transform="translate(-0.32 -77.13)"/></g><polyline class="cls-9" points="280.15 37.18 254.75 22.52 254.74 25.49 280.14 40.16 280.15 37.18"/><path class="cls-81" d="M273.05,102.52a6.22,6.22,0,0,0-2.44-3c-1.58-.91-2.87-.18-2.87,1.64a6.26,6.26,0,0,0,2.85,4.93c1,.6,2,.47,2.45-.21a2.42,2.42,0,0,0,.42-1.42A5.24,5.24,0,0,0,273.05,102.52Z" transform="translate(-0.32 -77.13)"/><path class="cls-81" d="M275.51,102.31c-1.05-.61-2-.47-2.46.21a2.36,2.36,0,0,0-.41,1.43,5.22,5.22,0,0,0,.4,1.89,6.23,6.23,0,0,0,2.45,3c1.58.91,2.86.18,2.87-1.63A6.31,6.31,0,0,0,275.51,102.31Z" transform="translate(-0.32 -77.13)"/><g class="cls-2"><g class="cls-82"><path class="cls-9" d="M293.15,136l-23.84-13.77c-.4-.23-.72,0-.72.42l0,15.36a1.58,1.58,0,0,0,.71,1.25L293.11,153c.4.23.72.05.72-.41l0-15.37a1.57,1.57,0,0,0-.72-1.24" transform="translate(-0.32 -77.13)"/></g></g><path class="cls-81" d="M292.27,136.86a.33.33,0,0,0-.21-.05l-10.26,1.57a1,1,0,0,1-.59-.14,2.15,2.15,0,0,1-.6-.54l-10.22-13.4a.62.62,0,0,0-.21-.19.23.23,0,0,0-.32,0c-.12.14-.07.45.11.69l10.64,13.94a2.26,2.26,0,0,0,.59.54.93.93,0,0,0,.6.14l10.68-1.63c.18,0,.24-.27.12-.55a.83.83,0,0,0-.33-.4" transform="translate(-0.32 -77.13)"/><g class="cls-83"><g class="cls-2"><path class="cls-84" d="M247.8,208.35l-29.5-17c-1.26-.73-2.3-.15-2.3,1.31L216,210.36a5,5,0,0,0,2.28,4l1.36.78v2.62L221,215.9l26.78,15.46c1.26.73,2.29.14,2.3-1.31l.05-17.74a5,5,0,0,0-2.29-4" transform="translate(-0.32 -77.13)"/></g></g><g class="cls-2"><path class="cls-8" d="M244.9,211.17l-23.74-13.71c-.43-.24-.77,0-.77.45V198a1.69,1.69,0,0,0,.76,1.33l23.75,13.71c.43.25.77,0,.77-.44v-.13a1.72,1.72,0,0,0-.78-1.34" transform="translate(-0.32 -77.13)"/><path class="cls-8" d="M230,207.32l-8.81-5.09c-.43-.25-.77,0-.77.44v.15a1.65,1.65,0,0,0,.76,1.32l8.82,5.09c.43.25.77.05.77-.43v-.14a1.67,1.67,0,0,0-.77-1.34" transform="translate(-0.32 -77.13)"/><path class="cls-8" d="M235.62,210.59l-2.37-1.37c-.46-.27-.83-.05-.83.48a1.83,1.83,0,0,0,.82,1.43l2.38,1.37c.45.26.83.05.83-.47a1.81,1.81,0,0,0-.83-1.44" transform="translate(-0.32 -77.13)"/><path class="cls-8" d="M223.57,208.41,221.19,207c-.46-.27-.83-.06-.83.47a1.84,1.84,0,0,0,.83,1.44l2.37,1.37c.46.26.83.05.83-.48a1.8,1.8,0,0,0-.82-1.43" transform="translate(-0.32 -77.13)"/></g><g class="cls-75"><path class="cls-76" d="M213.91,248.59c2.2,1,2.21,2.71,0,3.75a10.64,10.64,0,0,1-8,0c-2.21-1-2.23-2.71,0-3.75A10.62,10.62,0,0,1,213.91,248.59Z" transform="translate(-0.32 -77.13)"/></g><path class="cls-77" d="M218.42,222s.44.39.53.45a7.19,7.19,0,0,1,1.16.39.67.67,0,0,1,.14.5,3.16,3.16,0,0,1,.42.51c0,.11-.37.42-.38.48s-.1.43-.32.52-.76.37-.86.37a11.33,11.33,0,0,1-2.24-2.41C216.07,221.67,218.42,222,218.42,222Z" transform="translate(-0.32 -77.13)"/><path class="cls-63" d="M200.48,241.88a1.76,1.76,0,0,0-.51,0,3.91,3.91,0,0,0-1,1.28,21.7,21.7,0,0,0,2.92,2.7c.73.54,1.13,0,1-.26a12.11,12.11,0,0,1-.79-1.61,3.38,3.38,0,0,0-.48-1.14A7.63,7.63,0,0,0,200.48,241.88Z" transform="translate(-0.32 -77.13)"/><path class="cls-63" d="M211.17,223.22s1.07,8.44.84,9.75-9.8,10.37-9.9,10.33-2,.21-2.42-1.55l7.48-9-.33-8.32Z" transform="translate(-0.32 -77.13)"/><path class="cls-63" d="M201.28,224.33l-.07,1.4a6.34,6.34,0,0,0,.64,3.09c1.42,2.91,4.48,9.2,4.63,9.47s3,10.37,3,10.37a3.26,3.26,0,0,0,2.87-1s-2.23-10.2-2.37-11.9-3.09-11.41-3.09-11.41Z" transform="translate(-0.32 -77.13)"/><path class="cls-63" d="M209.74,248.7a14.65,14.65,0,0,1,3.07-1.51,2.91,2.91,0,0,1,2.49.36c.13.21-.42.91-1.12,1.27a33.8,33.8,0,0,1-3.79,1.32C210.12,250.17,209.77,249.58,209.74,248.7Z" transform="translate(-0.32 -77.13)"/><path class="cls-77" d="M210.5,207.22c1,.29,1.52,1,2.23,2.73a23,23,0,0,1,1,5l4.66,7.13s0,1.41-1,1.54c0,0-5-4.92-5.67-6.12s-.9-4.37-.9-4.37Z" transform="translate(-0.32 -77.13)"/><path class="cls-85" d="M211.61,215.63a27.36,27.36,0,0,0,2.59-1.56c-.38-1.14-1-3-1.47-4.12-.71-1.72-1.19-2.44-2.23-2.73l.35,5.86S211.18,214.39,211.61,215.63Z" transform="translate(-0.32 -77.13)"/><path class="cls-85" d="M210.5,207.22a9.59,9.59,0,0,0-2.29-.21l-4,.71a12.71,12.71,0,0,0-3.3,1.74l.13,5v9.81a.55.55,0,0,0,.25.47,7.84,7.84,0,0,0,5.2.77h0c.23,0,.47-.08.73-.13a9,9,0,0,0,2.06-.7h0a5,5,0,0,0,.52-.28.41.41,0,0,0,.11-.07,5.12,5.12,0,0,0,.77-.55l.07-.06a3.93,3.93,0,0,0,.46-.47l0-.05a2.46,2.46,0,0,0,.2-.27l0,0,0,0s0-.85,0-2.07h0c0-2.46.14-6.45.34-8.17A8,8,0,0,0,210.5,207.22Z" transform="translate(-0.32 -77.13)"/><path class="cls-63" d="M209,198.85s-2.46-1.26-4.21.09-1,3.7-.46,5.11,1,.93,1,.93l4.59-1.64s.61-.17.6-2.06A2.54,2.54,0,0,0,209,198.85Z" transform="translate(-0.32 -77.13)"/><path class="cls-77" d="M210.25,200.83c0-.33-.31-.6-.78-.76a3.12,3.12,0,0,1-1.51,1.78,2.41,2.41,0,0,1-2.33,0,7.33,7.33,0,0,0-.25,1.17c-.13-.25-.89-.83-1.06,0a.72.72,0,0,0,.6.93l0,3.06.25.9c2,.56,2.67.07,2.67.07l0-1.57c1.4.09,2.17-.28,2.3-1.24S210.26,201.58,210.25,200.83Z" transform="translate(-0.32 -77.13)"/><path class="cls-78" d="M207.78,206.73a1.12,1.12,0,0,1,.37.07,1.85,1.85,0,0,1,.64,1.27,4.78,4.78,0,0,1-.29,1.32l-1.23-1.2-.86,1.51a3.08,3.08,0,0,1-1.16-.66,4.38,4.38,0,0,1-1.05-1.32c.24-.55.41-.88.41-.88s.3-.18.3-.18a5.25,5.25,0,0,0,2.36,1.39S207.66,207.89,207.78,206.73Z" transform="translate(-0.32 -77.13)"/><path class="cls-77" d="M195.66,225.17s-.12.58-.13.69a7.77,7.77,0,0,1,.23,1.2c-.06.24-.37.37-.37.37a3.24,3.24,0,0,1-.23.61c-.08.09-.55-.11-.61-.09s-.42.12-.6,0a9.31,9.31,0,0,1-.76-.57,11.77,11.77,0,0,1,1-3.13C194.82,223,195.66,225.17,195.66,225.17Z" transform="translate(-0.32 -77.13)"/><path class="cls-77" d="M194,224.81s2.86-7.53,3.54-8.93,2.46-5.79,3.4-6.42,1.32,4,1.32,4-2.48,4.85-3.26,5.91-3.3,5.81-3.3,5.81S195,226.09,194,224.81Z" transform="translate(-0.32 -77.13)"/><path class="cls-85" d="M200,217.61c1-1.79,2.21-4.16,2.21-4.16s-.38-4.62-1.32-4c-.73.49-2.39,3.67-3.4,5.71A24.1,24.1,0,0,0,200,217.61Z" transform="translate(-0.32 -77.13)"/><path class="cls-9" d="M234.84,220.11l-6.73-3.89c-2.11-1.22-3.83-.24-3.84,2.19v3.41a8.4,8.4,0,0,0,3.72,6.54,1.3,1.3,0,0,1-1.5,1.18s2.57,1.44,3.62.05l4.71,2.72c2.12,1.23,3.83.24,3.84-2.18v-3.41a8.38,8.38,0,0,0-3.82-6.61" transform="translate(-0.32 -77.13)"/><path class="cls-8" d="M228,221.2c-.51-.29-.91-.06-.92.52a2,2,0,0,0,.91,1.57c.5.29.91.06.91-.52a2,2,0,0,0-.9-1.57m3.49,2c-.5-.29-.91-.06-.91.52a2,2,0,0,0,.91,1.57c.5.29.91.06.91-.52a2,2,0,0,0-.91-1.57m3.5,2c-.5-.29-.91-.06-.91.52a2,2,0,0,0,.9,1.57c.5.29.91,0,.91-.52a2,2,0,0,0-.9-1.57" transform="translate(-0.32 -77.13)"/><g class="cls-2"><polygon class="cls-86" points="166.42 167.7 107.13 202.12 47.58 167.7 107.13 133.29 166.42 167.7"/><polygon class="cls-87" points="166.42 232.36 166.42 167.7 107.13 202.12 107.13 232.36 166.42 232.36"/><polygon class="cls-88" points="107.13 232.36 107.13 202.12 47.58 167.7 47.58 232.36 107.13 232.36"/></g><g class="cls-2"><path class="cls-89" d="M136.21,239.21,98,261.43a4.68,4.68,0,0,1-4.28,0L65.37,245.08a1.52,1.52,0,0,1-.9-1.25V245a1.52,1.52,0,0,0,.89,1.25l28.33,16.36a4.74,4.74,0,0,0,4.28,0l38.24-22.22a1.54,1.54,0,0,0,.88-1.24V238A1.51,1.51,0,0,1,136.21,239.21Z" transform="translate(-0.32 -77.13)"/><path class="cls-8" d="M136.19,236.73c1.19.69,1.2,1.8,0,2.48L98,261.43a4.68,4.68,0,0,1-4.28,0L65.37,245.08c-1.19-.69-1.2-1.8,0-2.48l38.24-22.22a4.68,4.68,0,0,1,4.28,0Z" transform="translate(-0.32 -77.13)"/><path class="cls-89" d="M83.52,252.86a.36.36,0,0,1,0,.68,1.27,1.27,0,0,1-1.17,0l-3.51-2c-.33-.19-.33-.49,0-.68a1.33,1.33,0,0,1,1.17,0Z" transform="translate(-0.32 -77.13)"/><polygon class="cls-90" points="132.97 160.84 96.28 182.16 68.74 166.25 105.42 144.94 132.97 160.84"/></g><g class="cls-2"><path class="cls-8" d="M67.14,231.49c-.22-.12-.22-.33,0-.46a.87.87,0,0,1,.8,0l1.78,1c.23.13.23.34,0,.47a.93.93,0,0,1-.8,0l-1.79-1m3.14,1.81c-.22-.12-.23-.33,0-.46a.85.85,0,0,1,.79,0l.17.1c.22.12.22.33,0,.46a.87.87,0,0,1-.8,0l-.16-.1m-1.35-2.85c-.22-.12-.22-.33,0-.46a.87.87,0,0,1,.8,0l9.87,5.7c.22.13.22.33,0,.46a.87.87,0,0,1-.8,0l-9.87-5.7M80.28,237a.25.25,0,0,1,0-.47.93.93,0,0,1,.8,0l6,3.46c.22.13.22.33,0,.46a.87.87,0,0,1-.8,0l-6-3.45m6.23,5.67,2.75-1.61L94,243.81l-2.76,1.6-4.74-2.73M70.72,229.41c-.22-.13-.22-.33,0-.46a.87.87,0,0,1,.8,0l17.33,10c.22.12.22.33,0,.46a.87.87,0,0,1-.8,0l-17.33-10m19.17,11.3,2.75-1.6,4.75,2.74-2.76,1.6-4.74-2.74M72.51,228.37c-.22-.13-.22-.33,0-.46a.87.87,0,0,1,.8,0l4.62,2.67c.23.13.23.33,0,.46a.89.89,0,0,1-.81,0l-4.62-2.67m2.28-1.79,14.12-8.2,24.51,14.15-14.11,8.2L74.79,226.58m43,5.5L89.66,215.85a1.71,1.71,0,0,0-1.54,0L62.6,230.69c-.43.24-.43.64,0,.89l28.12,16.23a1.67,1.67,0,0,0,1.54,0L117.79,233a.48.48,0,0,0,0-.9" transform="translate(-0.32 -77.13)"/><path class="cls-65" d="M89.55,229.82l5-2.9,1.63,3.83-6.62-.93m23.87,2.71L88.91,218.38l-14.12,8.2,24.52,14.15,14.11-8.2" transform="translate(-0.32 -77.13)"/><polyline class="cls-91" points="97.07 164.72 92.33 161.98 89.57 163.58 94.32 166.32 97.07 164.72"/><polyline class="cls-91" points="93.69 166.68 88.95 163.94 86.19 165.54 90.94 168.28 93.69 166.68"/><polyline class="cls-8" points="94.22 149.78 89.24 152.68 95.85 153.61 94.22 149.78"/><path class="cls-67" d="M88.85,239,71.52,229a.87.87,0,0,0-.8,0c-.22.13-.22.33,0,.46l17.33,10a.87.87,0,0,0,.8,0c.22-.13.22-.34,0-.46" transform="translate(-0.32 -77.13)"/><path class="cls-67" d="M79.6,235.69,69.73,230a.87.87,0,0,0-.8,0c-.22.13-.22.34,0,.46l9.87,5.7a.87.87,0,0,0,.8,0c.22-.13.22-.33,0-.46" transform="translate(-0.32 -77.13)"/><path class="cls-66" d="M77.93,230.58l-4.62-2.67a.87.87,0,0,0-.8,0c-.22.13-.22.33,0,.46L77.13,231a.89.89,0,0,0,.81,0c.22-.13.22-.33,0-.46" transform="translate(-0.32 -77.13)"/><path class="cls-67" d="M87.06,240l-6-3.46a.93.93,0,0,0-.8,0,.25.25,0,0,0,0,.47l6,3.45a.87.87,0,0,0,.8,0c.22-.13.22-.33,0-.46" transform="translate(-0.32 -77.13)"/><path class="cls-66" d="M69.72,232.06l-1.78-1a.87.87,0,0,0-.8,0c-.22.13-.22.34,0,.46l1.79,1a.93.93,0,0,0,.8,0c.22-.13.22-.34,0-.47" transform="translate(-0.32 -77.13)"/><path class="cls-66" d="M71.24,232.94l-.17-.1a.85.85,0,0,0-.79,0c-.23.13-.22.34,0,.46l.16.1a.87.87,0,0,0,.8,0c.22-.13.22-.34,0-.46" transform="translate(-0.32 -77.13)"/></g><g class="cls-2"><path class="cls-8" d="M76.88,202.41c-2.14-1.24-2.15-3.24,0-4.48a8.53,8.53,0,0,1,7.73,0c2.14,1.24,2.15,3.24,0,4.48a8.56,8.56,0,0,1-7.73,0m10.06,5.81c-2.14-1.24-2.15-3.24,0-4.48a8.56,8.56,0,0,1,7.73,0c2.15,1.24,2.15,3.24,0,4.48a8.56,8.56,0,0,1-7.73,0M97,214c-2.14-1.24-2.15-3.24,0-4.48a8.56,8.56,0,0,1,7.73,0c2.14,1.24,2.15,3.24,0,4.48A8.53,8.53,0,0,1,97,214m15.21-3L82,193.59a3,3,0,0,0-2.75,0l-9.9,5.76c-.76.44-.75,1.15,0,1.59l30.19,17.43a3,3,0,0,0,2.74,0l9.9-5.76a.84.84,0,0,0,0-1.59" transform="translate(-0.32 -77.13)"/><path class="cls-91" d="M89,206.27l2.31-1.34.75,1.77L89,206.27m5.65-2.53a8.56,8.56,0,0,0-7.73,0c-2.12,1.24-2.11,3.24,0,4.48a8.56,8.56,0,0,0,7.73,0c2.12-1.24,2.12-3.24,0-4.48" transform="translate(-0.32 -77.13)"/><path class="cls-65" d="M80.42,199.81l2.65.37-2.31,1.34L80.11,200l-1,.58-.71-.4,2.31-1.34.71.41-1,.58m4.16-1.88a8.53,8.53,0,0,0-7.73,0c-2.12,1.24-2.11,3.24,0,4.48a8.56,8.56,0,0,0,7.73,0c2.12-1.24,2.11-3.24,0-4.48" transform="translate(-0.32 -77.13)"/><path class="cls-65" d="M101.48,212l1-.58.71.41-2.3,1.34-.71-.41,1-.58-2.65-.38,2.3-1.34.65,1.54m3.23-2.42a8.56,8.56,0,0,0-7.73,0c-2.13,1.24-2.12,3.24,0,4.48a8.53,8.53,0,0,0,7.73,0c2.13-1.24,2.12-3.24,0-4.48" transform="translate(-0.32 -77.13)"/><polyline class="cls-8" points="90.98 127.8 88.68 129.13 91.73 129.56 90.98 127.8"/><polyline class="cls-8" points="102.88 134.66 102.17 134.25 101.17 134.84 100.52 133.3 98.21 134.64 100.86 135.01 99.86 135.59 100.57 136 102.88 134.66"/><polyline class="cls-8" points="82.75 123.04 80.1 122.67 81.1 122.09 80.39 121.68 78.09 123.02 78.8 123.43 79.8 122.85 80.45 124.38 82.75 123.04"/></g><g class="cls-92"><circle class="cls-84" cx="287.84" cy="93.93" r="0.69"/><circle class="cls-84" cx="297.82" cy="86.5" r="1.37"/><circle class="cls-84" cx="329.53" cy="93.58" r="0.76"/><path class="cls-84" d="M308.42,215.64a.68.68,0,1,1-.68-.68A.67.67,0,0,1,308.42,215.64Z" transform="translate(-0.32 -77.13)"/><circle class="cls-84" cx="380.71" cy="56.88" r="0.61"/><path class="cls-84" d="M349,118.2a1,1,0,0,1-2.07,0,1,1,0,1,1,2.07,0Z" transform="translate(-0.32 -77.13)"/><path class="cls-84" d="M359.3,139.43a.7.7,0,1,1-.7-.7A.69.69,0,0,1,359.3,139.43Z" transform="translate(-0.32 -77.13)"/><path class="cls-84" d="M378.18,108.73a.54.54,0,1,1-.54-.54A.54.54,0,0,1,378.18,108.73Z" transform="translate(-0.32 -77.13)"/><circle class="cls-84" cx="392.71" cy="79.58" r="0.69"/><path class="cls-84" d="M402.61,154.33a.68.68,0,0,1-.69.68.67.67,0,0,1-.68-.68.68.68,0,0,1,.68-.69A.69.69,0,0,1,402.61,154.33Z" transform="translate(-0.32 -77.13)"/><circle class="cls-84" cx="406.26" cy="51.72" r="0.78"/><circle class="cls-84" cx="409.08" cy="84.05" r="0.45"/><circle class="cls-84" cx="52.1" cy="51.54" r="0.79"/><circle class="cls-84" cx="43.78" cy="51.76" r="0.38"/><path class="cls-84" d="M53.81,101.58a.82.82,0,0,1-.82.82.82.82,0,1,1,.82-.82Z" transform="translate(-0.32 -77.13)"/><circle class="cls-84" cx="62.72" cy="35.42" r="0.42"/><path class="cls-84" d="M69.69,124.79a.46.46,0,0,1-.46.46.47.47,0,1,1,0-.93A.46.46,0,0,1,69.69,124.79Z" transform="translate(-0.32 -77.13)"/><circle class="cls-84" cx="82.05" cy="64.23" r="0.62"/><path class="cls-84" d="M94.46,144.87a.41.41,0,1,1-.41-.42A.41.41,0,0,1,94.46,144.87Z" transform="translate(-0.32 -77.13)"/><path class="cls-84" d="M76.6,147.64a.43.43,0,0,1-.43.43.43.43,0,1,1,0-.85A.42.42,0,0,1,76.6,147.64Z" transform="translate(-0.32 -77.13)"/><path class="cls-84" d="M74,158.44a.66.66,0,1,1-.65-.66A.66.66,0,0,1,74,158.44Z" transform="translate(-0.32 -77.13)"/><path class="cls-84" d="M38,178.57a.32.32,0,0,1-.32.32.33.33,0,1,1,0-.65A.32.32,0,0,1,38,178.57Z" transform="translate(-0.32 -77.13)"/><path class="cls-84" d="M104.38,182.82a.85.85,0,1,1-.85-.85A.85.85,0,0,1,104.38,182.82Z" transform="translate(-0.32 -77.13)"/><path class="cls-84" d="M132.55,163a.79.79,0,1,1-.79-.79A.79.79,0,0,1,132.55,163Z" transform="translate(-0.32 -77.13)"/><circle class="cls-84" cx="151.91" cy="19.39" r="0.7"/><path class="cls-84" d="M156.34,102.4a.82.82,0,0,1-.82.81.81.81,0,0,1-.81-.81.82.82,0,0,1,.81-.82A.82.82,0,0,1,156.34,102.4Z" transform="translate(-0.32 -77.13)"/><path class="cls-84" d="M228,103.84a.62.62,0,1,1-.62-.63A.62.62,0,0,1,228,103.84Z" transform="translate(-0.32 -77.13)"/><path class="cls-84" d="M246,94.31a.86.86,0,1,1-.86-.86A.87.87,0,0,1,246,94.31Z" transform="translate(-0.32 -77.13)"/><path class="cls-84" d="M271.32,92.43a.36.36,0,1,1-.36-.36A.36.36,0,0,1,271.32,92.43Z" transform="translate(-0.32 -77.13)"/><path class="cls-84" d="M268.44,116.25a.61.61,0,1,1-1.21,0,.61.61,0,0,1,1.21,0Z" transform="translate(-0.32 -77.13)"/><path class="cls-84" d="M267.67,149.56a.72.72,0,0,1-.72.72.73.73,0,0,1-.73-.72.73.73,0,0,1,.73-.73A.73.73,0,0,1,267.67,149.56Z" transform="translate(-0.32 -77.13)"/><path class="cls-84" d="M269.42,153.45a.49.49,0,0,1-1,0,.49.49,0,1,1,1,0Z" transform="translate(-0.32 -77.13)"/><circle class="cls-84" cx="225.34" cy="49.24" r="0.51"/><circle class="cls-84" cx="135.24" cy="88.3" r="0.43"/><path class="cls-84" d="M100.78,199.88a.64.64,0,0,1-.64.63.63.63,0,0,1-.63-.63.64.64,0,0,1,.63-.64A.64.64,0,0,1,100.78,199.88Z" transform="translate(-0.32 -77.13)"/><circle class="cls-84" cx="61.69" cy="145.6" r="0.68"/><circle class="cls-84" cx="63.34" cy="137" r="0.62"/><circle class="cls-84" cx="27.07" cy="144.63" r="0.69"/><path class="cls-84" d="M17.2,213.73a1.29,1.29,0,0,1-2.57,0,1.29,1.29,0,1,1,2.57,0Z" transform="translate(-0.32 -77.13)"/><path class="cls-84" d="M12.34,222a.24.24,0,0,1-.48,0,.24.24,0,0,1,.48,0Z" transform="translate(-0.32 -77.13)"/><path class="cls-84" d="M184,286.94a1,1,0,1,1-1-1A1,1,0,0,1,184,286.94Z" transform="translate(-0.32 -77.13)"/><circle class="cls-84" cx="94.94" cy="223.04" r="0.56"/><path class="cls-84" d="M121.47,304.66a.5.5,0,1,1-.49-.49A.49.49,0,0,1,121.47,304.66Z" transform="translate(-0.32 -77.13)"/><path class="cls-84" d="M26.7,300.11a.5.5,0,0,1-1,0,.5.5,0,1,1,1,0Z" transform="translate(-0.32 -77.13)"/><path class="cls-84" d="M12.75,288.78a.45.45,0,1,1-.44-.44A.45.45,0,0,1,12.75,288.78Z" transform="translate(-0.32 -77.13)"/><path class="cls-84" d="M12.75,298a.45.45,0,0,1-.89,0,.45.45,0,1,1,.89,0Z" transform="translate(-0.32 -77.13)"/><circle class="cls-84" cx="373.78" cy="214.68" r="0.56"/><path class="cls-84" d="M373.54,302.69a1.19,1.19,0,1,1-1.19-1.19A1.19,1.19,0,0,1,373.54,302.69Z" transform="translate(-0.32 -77.13)"/><path class="cls-84" d="M390.72,295.53a.56.56,0,1,1-.55-.55A.55.55,0,0,1,390.72,295.53Z" transform="translate(-0.32 -77.13)"/></g></g></g></svg>